<ttFont>
          <CharString index="0">
            rmoveto
            -23 vlineto
            -313.02 188.99 -235.99 304 304 187.99 235.99 313.02 vhcurveto
            23 vlineto
            313 -187.99 237 -306.02 -302 34 callsubr
            -237 -313 vhcurveto
            187 -23 rmoveto
            23 vlineto
            212.99 100.99 187 203 205 102.01 -187 -212.99 vhcurveto
            -23 vlineto
            -215 -17 callsubr
            -184 -203 -205 4 callsubr
            184 215 vhcurveto
            endchar
          </CharString>
          <CharString index="1">
            rmoveto
            302 -135 227 -311 -243 -230 -204 -351.99 vhcurveto
            -43 vlineto
            -304 -77 callsubr
            -218.99 302 215 123 101.99 107 70 vhcurveto
            21 callsubr
            88 rlineto
            -89 -68 -86 -58 -131 hhcurveto
            -197 -117 160 199.99 -6 hvcurveto
            732.02 hlineto
            -187 -50 callgsubr
            rmoveto
            -539.02 hlineto
            200.99 25 107.99 111 147 hhcurveto
            189 -38 callgsubr
            -154 -144 9.02 hvcurveto
            endchar
          </CharString>
          <CharString index="2">
            199 hlineto
            -557 66 callsubr
            -42 hlineto
            -128 hlineto
            -555.99 54 callgsubr
            199.99 hlineto
            138.02 380.99 rlineto
            606.99 hlineto
            -549.99 157 rmoveto
            246 680 246.99 -680 rlineto
            endchar
          </CharString>
          <CharString index="3">
            -463.01 -96.01 rmoveto
            -135 -70.99 82 104 133.02 -33 callgsubr
            -43 callsubr
            211 hvcurveto
            152 -223.99 hlineto
            -82 -40 -17 callsubr
            -80.02 -134 hhcurveto
            endchar
          </CharString>
          <CharString index="4">
            190 hlineto
            -472 65 callsubr
            -45 hlineto
            -122 hlineto
            -479.01 53 callsubr
            190 hlineto
            111 279.98 rlineto
            518 hlineto
            -459 151 rmoveto
            201 507 198.99 -507 rlineto
            endchar
          </CharString>
          <CharString index="5">
            rmoveto
            -194.99 -984.99 hlineto
            -228 -133.02 33 callsubr
            -200.99 -200 -134 -28 callsubr
            228 vhcurveto
            984.99 -192 -984.99 vlineto
            -328 229 -163 297 282.01 246.99 163 328 vhcurveto
            endchar
          </CharString>
          <CharString index="6">
            148.99 return
          </CharString>
          <CharString index="7">
            -73 callgsubr
            -104 callsubr
          </CharString>
          <CharString index="8">
            185.99 return
          </CharString>
          <CharString index="9">
            -103 0 -94 callgsubr
            hstem
            679.99 -89 callsubr
            680 hmoveto
            186 808 hlineto
            233 -146 -28 callgsubr
            -245 vhcurveto
            -401 110 callsubr
            -45 callgsubr
            79.01 58 callgsubr
          </CharString>
          <CharString index="10">
            40.96 return
          </CharString>
          <CharString index="11">
            146 callgsubr
            vstem
            668 -22 rmoveto
            298.98 199 215.98 325 hvcurveto
            141 vlineto
            339 -199 200.99 -328.99 -165 -214 -32 callgsubr
            -46.02 -156 vhcurveto
            36 -139.98 74 85 callgsubr
            86 23 51 6 rlinecurve
            1 -2.99 -6 -2 -4 -2.99 -4 -3.02 rlinecurve
            -96.01 -65 -72 -161 1 -156 rrcurveto
            92 callgsubr
            vlineto
            -325 3 199.99 -215.98 295.02 hhcurveto
            156.98 vmoveto
            -187 -45 callsubr
            153 230 hvcurveto
            131 vlineto
            245 5 116.02 150 180 hhcurveto
            199.99 -7 callgsubr
            -147 -239 hvcurveto
            -140 vlineto
            -230 -126.02 -153 -187.99 vhcurveto
            return
          </CharString>
          <CharString index="12">
            -617.99 377 530.99 151 -530.99 336 611.99 151 -611.99 81 callgsubr
            141 hlineto
            663.99 hlineto
            endchar
          </CharString>
          <CharString index="13">
            -148.99 return
          </CharString>
          <CharString index="14">
            5 -43 9.02 -42.99 12 -26.99 rrcurveto
            -77 callsubr
            15.99 hlineto
            return
          </CharString>
          <CharString index="15">
            -313 -8 170 -162 53 callgsubr
            426.98 183 hintmask 10110000
            -43 callsubr
            -8 rmoveto
            206 163 -65 callsubr
            178 23.99 hvcurveto
            7 hlineto
            hintmask 01110000
            69 -329.99 rlineto
            175 hlineto
            -82 389.98 rlineto
            -12 55 -6.99 67.02 58 vvcurveto
            607.99 -449 -94 callsubr
            266 -565 vlineto
            hintmask 10110000
            -65 callgsubr
            -167 -118 -128.99 -199 -6 rrcurveto
            -18 -19.99 0.98 3.02 -20.01 hvcurveto
            -170.99 vlineto
            -3 14.99 17.02 0 15 hhcurveto
            endchar
          </CharString>
          <CharString index="16">
            184.99 return
          </CharString>
          <CharString index="17">
            rmoveto
            503.99 vlineto
            242.02 -167.02 119.99 -235.99 return
          </CharString>
          <CharString index="18">
            -99 callsubr
            vstem
            return
          </CharString>
          <CharString index="19">
            31.99 return
          </CharString>
          <CharString index="20">
            310 -1 196 161.99 343 vvcurveto
            691 -797.99 -94 callsubr
            612.99 -582 vlineto
            -200 -116 -111 -217.99 -4 vhcurveto
            -83 -1 -96.01 14 -111 29.99 -29.99 -139 rcurveline
            return
          </CharString>
          <CharString index="21">
            150.99 return
          </CharString>
          <CharString index="22">
            187 hlineto
            91 93 81.02 139 149 78 -83 -129 vhcurveto
            -86 -182 vlineto
            return
          </CharString>
          <CharString index="23">
            -18 -20 -103 callgsubr
            359.98999 -32 callsubr
            312.00002 -103 callgsubr
            return
          </CharString>
          <CharString index="24">
            -43.99 return
          </CharString>
          <CharString index="25">
            127 hstemhm
            -34 callsubr
            159 -139.02 158 237.02 157.98 -137.99 158 hintmask 11110010
            532.99 return
          </CharString>
          <CharString index="26">
            183 vstem
            1033.99 -61 callsubr
            -891 -94 callsubr
            12 callgsubr
            hlineto
            -59 -52 callgsubr
            73 callgsubr
            31 callsubr
            3 -135 2.99 -197 rcurveline
            -51.02 95 77 -16 21 callgsubr
            hhcurveto
            160.02 vlineto
            30 callgsubr
            -47 5 13 -31.01 hvcurveto
            13 callgsubr
            vlineto
            110 29 128 43 74 callgsubr
            vhcurveto
            403.99 -1445 183 hlineto
            return
          </CharString>
          <CharString index="27">
            233 0 43 337.98 -97 callgsubr
            877.04999 -97 callsubr
            return
          </CharString>
          <CharString index="28">
            -1455.98 return
          </CharString>
          <CharString index="29">
            -5 40 35 -3.99 40 hhcurveto
            195 105.99 112.98 217 hvcurveto
            396.98 vlineto
            118.01 28.02 122 -74 callgsubr
            -84 callgsubr
            vhcurveto
            return
          </CharString>
          <CharString index="30">
            194.99 return
          </CharString>
          <CharString index="31">
            -45 callgsubr
            69 -84 callgsubr
            118 35 -6 callsubr
            -3 -5 28 vhcurveto
            -21 callsubr
            return
          </CharString>
          <CharString index="32">
            -95 callgsubr
            518 -95 callgsubr
            468.99998 -97 callgsubr
            return
          </CharString>
          <CharString index="33">
            107 -23 callsubr
            889.99 154 return
          </CharString>
          <CharString index="34">
            181 callgsubr
            -39 34 -35 return
          </CharString>
          <CharString index="35">
            102.01 52 93 71 118 hhcurveto
            140 75 -66.01 -170 hvcurveto
            -710.98 187 709 vlineto
            75 callsubr
            -134 110 -212.99 vhcurveto
            endchar
          </CharString>
          <CharString index="36">
            -1164.98 return
          </CharString>
          <CharString index="37">
            rmoveto
            -39 callgsubr
            -92 callgsubr
            -45.02 79 callsubr
          </CharString>
          <CharString index="38">
            -262 -168 -165 -155 hvcurveto
            -85 callsubr
            return
          </CharString>
          <CharString index="39">
            1177.99 return
          </CharString>
          <CharString index="40">
            -107 0 -103 callgsubr
            377 -86 callsubr
            335.99998 -86 callsubr
            return
          </CharString>
          <CharString index="41">
            186.98 return
          </CharString>
          <CharString index="42">
            159.99 return
          </CharString>
          <CharString index="43">
            128 hstem
            79.99 158.99 273.01999 157.98 vstem
            669.98 return
          </CharString>
          <CharString index="44">
            -213 -97 161 235.99 hvcurveto
            121 callgsubr
            vlineto
            249 110 82 callgsubr
            211 188 74 -92 -154.99 21 vhcurveto
            187 hlineto
            235 -25 -153.99 163 -291 hhcurveto
            -311.01 -194.99 -214.02 -333.99 hvcurveto
            -102.02 vlineto
            return
          </CharString>
          <CharString index="45">
            -20 -95 callgsubr
            -18 callsubr
            43 return
          </CharString>
          <CharString index="46">
            -68 callsubr
            rmoveto
            return
          </CharString>
          <CharString index="47">
            -96.01 5 callgsubr
            -53 31 69 -8.01 hvcurveto
            -156 hlineto
            -145 7.99 138.02 -82 149 hhcurveto
            201 93 return
          </CharString>
          <CharString index="48">
            152.99 return
          </CharString>
          <CharString index="49">
            1349 1331 rmoveto
            -74 callgsubr
            34 30 -13 callgsubr
            42 -34 31 -83 callsubr
            -29 callsubr
            -42 callsubr
            -39 callgsubr
            hvcurveto
            -988.02 70 callsubr
            return
          </CharString>
          <CharString index="50">
            168.98 194 return
          </CharString>
          <CharString index="51">
            -257.98 -116 232 286 hvcurveto
            -101 callsubr
            vlineto
            309 134 207 257.98 224 88 -126.01 -203.99 29 vhcurveto
            -14 callgsubr
            hlineto
            287.99 -30 -175 199 -330 hhcurveto
            -361 -226 -268 -407 hvcurveto
            -147 vlineto
            return
          </CharString>
          <CharString index="52">
            -97 callsubr
            153.01001 -14 callsubr
            hstemhm
            44 callsubr
            -39 callsubr
            return
          </CharString>
          <CharString index="53">
            -53 callgsubr
            -91 callsubr
            649.98999 185.01 return
          </CharString>
          <CharString index="54">
            -72.01 return
          </CharString>
          <CharString index="55">
            146.98 return
          </CharString>
          <CharString index="56">
            -101 -18 callgsubr
            -170 -43 callgsubr
            -53 -18 -11 -25 hvcurveto
            23 171.99 rlineto
            348 130 -478.99 hlineto
            endchar
          </CharString>
          <CharString index="57">
            147.99 return
          </CharString>
          <CharString index="58">
            -7 callsubr
            hlineto
            304 hlineto
            403.99 256 120 callsubr
            421.01 hvcurveto
            88 vlineto
            420 -259.99 263.98 -383 vhcurveto
            450.99 -771.99 rmoveto
            -320 -158 -208 -309.98 vhcurveto
            -200 return
          </CharString>
          <CharString index="59">
            -53 callsubr
            113 callsubr
            58 callsubr
            -84 callgsubr
            return
          </CharString>
          <CharString index="60">
            -84 callgsubr
            38.99 46 58 59 73 callgsubr
            77 callsubr
            return
          </CharString>
          <CharString index="61">
            -117.99 return
          </CharString>
          <CharString index="62">
            -125.01 return
          </CharString>
          <CharString index="63">
            89.99 return
          </CharString>
          <CharString index="64">
            66.99 return
          </CharString>
          <CharString index="65">
            -34 -31 -42 45 callgsubr
            -34 return
          </CharString>
          <CharString index="66">
            -62 callsubr
            903.99 -63 callgsubr
            hstemhm
            return
          </CharString>
          <CharString index="67">
            72.99 return
          </CharString>
          <CharString index="68">
            179.99 return
          </CharString>
          <CharString index="69">
            -64 callgsubr
            -186.99 -71 callsubr
            vlineto
            endchar
          </CharString>
          <CharString index="70">
            -29 callgsubr
            -61 -62 -29 callsubr
            -41 -72.99 -74 -29 callsubr
            41 62 99 callsubr
            -39 callgsubr
            39 -40 callsubr
            hvcurveto
            hintmask 11110010
            1 return
          </CharString>
          <CharString index="71">
            39 callgsubr
            -20 callsubr
            -78 callgsubr
            77 callsubr
            return
          </CharString>
          <CharString index="72">
            hstemhm
            108.99 187 -164 187 return
          </CharString>
          <CharString index="73">
            78.99 return
          </CharString>
          <CharString index="74">
            -84.99 return
          </CharString>
          <CharString index="75">
            150.01 return
          </CharString>
          <CharString index="76">
            rmoveto
            -52 callgsubr
            -53.99 42 70 69 53.99 42 83 82 57 -42 -69 -70 -56 -42 -82 hvcurveto
            endchar
          </CharString>
          <CharString index="77">
            rmoveto
            -74 callgsubr
            170 callgsubr
            40.99 172 callsubr
            31.01 175 callsubr
            63 callgsubr
            -49 callgsubr
            -32 45 hvcurveto
            endchar
          </CharString>
          <CharString index="78">
            -45.02 return
          </CharString>
          <CharString index="79">
            107.01 return
          </CharString>
          <CharString index="80">
            vlineto
            228 -46 callsubr
            107.99 -177 -177 -46 callsubr
            -107.99 -228 vhcurveto
            return
          </CharString>
          <CharString index="81">
            rlineto
            -226 54 callsubr
            return
          </CharString>
          <CharString index="82">
            817.99 -316 rmoveto
            -74 callgsubr
            170 callgsubr
            41 172 callsubr
            3 callsubr
            175 callsubr
            -32 callgsubr
            -42 -41 -49 callgsubr
            -32 45 hvcurveto
            return
          </CharString>
          <CharString index="83">
            150.99 -19 callgsubr
            return
          </CharString>
          <CharString index="84">
            -15.99 -59 callsubr
            return
          </CharString>
          <CharString index="85">
            85 hlineto
            264 hlineto
            345.01 223.99 215 335 hvcurveto
            64 vlineto
            334.99 -226 216 -331 vhcurveto
            371 -614.99 rmoveto
            -247 -126 -152.99 -257 vhcurveto
            -162 return
          </CharString>
          <CharString index="86">
            10.02 149.02 rlineto
            10 -41 -44 6 -42 hhcurveto
            -221.99 -135 105 callsubr
            return
          </CharString>
          <CharString index="87">
            46.02 58 58.99 return
          </CharString>
          <CharString index="88">
            202.02 return
          </CharString>
          <CharString index="89">
            -135.99 return
          </CharString>
          <CharString index="90">
            -102.01 return
          </CharString>
          <CharString index="91">
            -135 105 callsubr
            5 callsubr
            return
          </CharString>
          <CharString index="92">
            112 callsubr
            192 668.01001 -77 callsubr
            vstem
            return
          </CharString>
          <CharString index="93">
            144.99 return
          </CharString>
          <CharString index="94">
            -90.01 return
          </CharString>
          <CharString index="95">
            127 hstemhm
            62.99 158 -148 159 262.98999 158 -145 159 hintmask 11110010
            return
          </CharString>
          <CharString index="96">
            106 vvcurveto
            145 4 callgsubr
            31 callgsubr
            -179 -188 -112 -118 31 callsubr
            vhcurveto
            159 hlineto
            76 45 58 100 -34 callsubr
            44 -46 -65 -44 -31 -56 -89 -83 vhcurveto
            -289 return
          </CharString>
          <CharString index="97">
            -40 callgsubr
            -30 callgsubr
            -39 -49 callgsubr
            -35 return
          </CharString>
          <CharString index="98">
            -58 callgsubr
            hstem
            return
          </CharString>
          <CharString index="99">
            -20.99 return
          </CharString>
          <CharString index="100">
            90.01 return
          </CharString>
          <CharString index="101">
            36.99 return
          </CharString>
          <CharString index="102">
            -619.01 -128 452.02 vlineto
            -349 -660.99 rlineto
            167 hlineto
            endchar
          </CharString>
          <CharString index="103">
            -183 -200 -127 -77 62.02 84.99 -48 vhcurveto
            29 callgsubr
            vlineto
            86.02 47 79.01 63 123.99 hhcurveto
            -19 callsubr
            return
          </CharString>
          <CharString index="104">
            -427 -32 callsubr
            256.99 -95 callgsubr
            811 -63 callgsubr
            hstem
            return
          </CharString>
          <CharString index="105">
            -213 53 -80 54 31 callgsubr
            vvcurveto
            -18 callgsubr
            -34 callsubr
            -40 callsubr
            167.02 175.99 84 -86 -27 callgsubr
            vhcurveto
            187 hlineto
            return
          </CharString>
          <CharString index="106">
            hstem
            86 158 281.98 158 vstem
            430.98 return
          </CharString>
          <CharString index="107">
            -940.99 187 return
          </CharString>
          <CharString index="108">
            139.98 return
          </CharString>
          <CharString index="109">
            -1.99 return
          </CharString>
          <CharString index="110">
            30.99 return
          </CharString>
          <CharString index="111">
            -100.99 return
          </CharString>
          <CharString index="112">
            -115 -170 -141 72 callsubr
            229.99 141 137 callsubr
            154 callgsubr
            return
          </CharString>
          <CharString index="113">
            -34 callgsubr
            -57 callsubr
            return
          </CharString>
          <CharString index="114">
            187 vstem
            return
          </CharString>
          <CharString index="115">
            -8 callsubr
            161.98 1173.00002 163 hstem
            -6 callgsubr
            193 864.98999 192 vstem
            1375.99 705.99 rmoveto
            return
          </CharString>
          <CharString index="116">
            -20 -95 callgsubr
            1279.02998 -97 callsubr
            return
          </CharString>
          <CharString index="117">
            -79.01 -128 hvcurveto
            return
          </CharString>
          <CharString index="118">
            77.99 return
          </CharString>
          <CharString index="119">
            177.99 return
          </CharString>
          <CharString index="120">
            182.99 return
          </CharString>
          <CharString index="121">
            83 callgsubr
            29 callsubr
            -17 callgsubr
            -45 -93 -87 -58 46 60 hvcurveto
            -158 hlineto
            -162 82 callgsubr
            -71 151 174.02 132 return
          </CharString>
          <CharString index="122">
            -169 vhcurveto
            84 callgsubr
            -408 rmoveto
            -52 callgsubr
            -43 callgsubr
            58 return
          </CharString>
          <CharString index="123">
            0 callsubr
            940.99 return
          </CharString>
          <CharString index="124">
            -293.01 rlineto
            return
          </CharString>
          <CharString index="125">
            -64 callgsubr
            rmoveto
            return
          </CharString>
          <CharString index="126">
            -46 -76 callgsubr
            return
          </CharString>
          <CharString index="127">
            hstem
            92 187 610.99 -66 callsubr
            vstem
            return
          </CharString>
          <CharString index="128">
            -113.01 return
          </CharString>
          <CharString index="129">
            -55.99 return
          </CharString>
          <CharString index="130">
            rmoveto
            -377 732 rlineto
            -222 hlineto
            501 -912 rlineto
            -543.99 -77 callsubr
            543.99 vlineto
            501 912 rlineto
            -220 hlineto
            endchar
          </CharString>
          <CharString index="131">
            273 rlineto
            -112 hlineto
            -245.99 -272 159 callgsubr
            return
          </CharString>
          <CharString index="132">
            -89 callsubr
            73 callsubr
            -61 callsubr
            -94 callsubr
            560 -1029 186 1029 197 -101 callsubr
            vlineto
            return
          </CharString>
          <CharString index="133">
            -49 22 callsubr
            vhcurveto
            -106 -49 -18 callgsubr
            -112.99 hhcurveto
            return
          </CharString>
          <CharString index="134">
            -547 -11 callgsubr
            return
          </CharString>
          <CharString index="135">
            94.99 return
          </CharString>
          <CharString index="136">
            -67.01 return
          </CharString>
          <CharString index="137">
            -39.02 return
          </CharString>
          <CharString index="138">
            -142.99 return
          </CharString>
          <CharString index="139">
            73.01 return
          </CharString>
          <CharString index="140">
            -107.01 return
          </CharString>
          <CharString index="141">
            -188.99 return
          </CharString>
          <CharString index="142">
            576.98 hmoveto
            310 6.98 205 180 299.01 vvcurveto
            692 -913 -94 callsubr
            727 -547 vlineto
            return
          </CharString>
          <CharString index="143">
            -9.99 -71 callgsubr
            -145 43 -42 53 callgsubr
            186 callsubr
            44 callsubr
            return
          </CharString>
          <CharString index="144">
            vlineto
            hintmask 11110010
            84.99 hlineto
            98.02 73 callsubr
            return
          </CharString>
          <CharString index="145">
            -29 callsubr
            -83 callsubr
            return
          </CharString>
          <CharString index="146">
            13 callsubr
            vstem
            651 -416.01 rmoveto
            13 callsubr
            1594 -769 -94 callsubr
            586.02 hlineto
            return
          </CharString>
          <CharString index="147">
            -37 hlineto
            -45 callsubr
            hlineto
            -377 -518 7 4 callsubr
            rlineto
            373 -170 159 170 103 callgsubr
            hlineto
            -487 return
          </CharString>
          <CharString index="148">
            -63 callgsubr
            112 callsubr
            187 return
          </CharString>
          <CharString index="149">
            14.99 hlineto
            301 137.02 return
          </CharString>
          <CharString index="150">
            73.02 return
          </CharString>
          <CharString index="151">
            180.98 return
          </CharString>
          <CharString index="152">
            -402 -94 callsubr
            return
          </CharString>
          <CharString index="153">
            43 -72 callgsubr
            1139.00002 -9 callsubr
            116 -91 callsubr
            547 7 callsubr
            return
          </CharString>
          <CharString index="154">
            -76 callgsubr
            104 callgsubr
            46 58 59 30 callsubr
            return
          </CharString>
          <CharString index="155">
            131 230.02 355 hhcurveto
            16 156 -16 hlineto
            -564 -134 -420 -412 hvcurveto
            -88 vlineto
            -270.99 return
          </CharString>
          <CharString index="156">
            -293.01 67 callgsubr
            136 callgsubr
            return
          </CharString>
          <CharString index="157">
            140 -44.98999 141 hstemhm
            return
          </CharString>
          <CharString index="158">
            -160 -160.99 -115.02 return
          </CharString>
          <CharString index="159">
            43 callsubr
            hhcurveto
            82 callsubr
            53 return
          </CharString>
          <CharString index="160">
            -71 callsubr
            rlineto
            return
          </CharString>
          <CharString index="161">
            hlineto
            -5 callgsubr
            return
          </CharString>
          <CharString index="162">
            -1498 187 520 hlineto
            -80.02 32 callsubr
            102 -83 callsubr
            134 hhcurveto
            268 return
          </CharString>
          <CharString index="163">
            -35 121 112 -17.98 99.99 hhcurveto
            return
          </CharString>
          <CharString index="164">
            95 callsubr
            rmoveto
            -193 136 callgsubr
            -226 hlineto
            259.01 17 callsubr
            return
          </CharString>
          <CharString index="165">
            -59 -58 -6 callsubr
            -46 return
          </CharString>
          <CharString index="166">
            -200 -80 166 35 callgsubr
            hvcurveto
            124 callsubr
            vlineto
            233 80 197 -19 callsubr
            return
          </CharString>
          <CharString index="167">
            1536 rmoveto
            -225 hlineto
            -194 17 callsubr
            return
          </CharString>
          <CharString index="168">
            220.01 210.99 -80 callgsubr
            return
          </CharString>
          <CharString index="169">
            651.98 113 callgsubr
            return
          </CharString>
          <CharString index="170">
            -41 -39 34 -35 -74 callgsubr
            return
          </CharString>
          <CharString index="171">
            -59 -58 37 19 callsubr
            return
          </CharString>
          <CharString index="172">
            -64 callgsubr
            rlineto
            return
          </CharString>
          <CharString index="173">
            -70 callgsubr
            rlineto
            return
          </CharString>
          <CharString index="174">
            -63 callgsubr
            -51.96002 -97 callsubr
            hstemhm
            44 callsubr
            185.01 return
          </CharString>
          <CharString index="175">
            1273 rmoveto
            -193 169 callsubr
            -226 hlineto
            259.01 66 callgsubr
            return
          </CharString>
          <CharString index="176">
            -106 rlineto
            199 105 84 -7 callgsubr
            hvcurveto
            hintmask 10101110
            116 -76 -74 callgsubr
            -77 13 vhcurveto
            return
          </CharString>
          <CharString index="177">
            -153 -79 callgsubr
            return
          </CharString>
          <CharString index="178">
            22 callgsubr
            -64 -149.02 -121 vvcurveto
            return
          </CharString>
          <CharString index="179">
            170 16 callsubr
            return
          </CharString>
          <CharString index="180">
            59.99 return
          </CharString>
          <CharString index="181">
            65.99 return
          </CharString>
          <CharString index="182">
            282.99 return
          </CharString>
          <CharString index="183">
            1082 -186 -1082 vlineto
            endchar
          </CharString>
          <CharString index="184">
            47 -53 callsubr
            return
          </CharString>
          <CharString index="185">
            108 callgsubr
            -71 callgsubr
            return
          </CharString>
          <CharString index="186">
            -83 callsubr
            -73 callsubr
            43.99 hvcurveto
            endchar
          </CharString>
          <CharString index="187">
            -248 273.02 rlineto
            return
          </CharString>
          <CharString index="188">
            141.01 293 return
          </CharString>
          <CharString index="189">
            96.99 return
          </CharString>
          <CharString index="190">
            129.99 return
          </CharString>
          <CharString index="191">
            20.99 return
          </CharString>
          <CharString index="192">
            46 -20 152 670.97 152 347.02 -95 callgsubr
            hstem
            return
          </CharString>
          <CharString index="193">
            -45 callsubr
            11.98 169 callgsubr
            return
          </CharString>
          <CharString index="194">
            216 -52 55 122 callsubr
            -99 vvcurveto
            -98 -88 118 callsubr
            -166 vhcurveto
            return
          </CharString>
          <CharString index="195">
            hlineto
            -295.02 -388 rlineto
            -6 vlineto
            -13 vlineto
            295.02 -389 rlineto
            return
          </CharString>
          <CharString index="196">
            -122 -93 119 callgsubr
            -145 hvcurveto
            1 callgsubr
            -7 rlineto
            63 43 49 return
          </CharString>
          <CharString index="197">
            71 159 vhcurveto
            174 -309.98 rmoveto
            -1082 187 1082 vlineto
            endchar
          </CharString>
          <CharString index="198">
            0 -95 callgsubr
            return
          </CharString>
          <CharString index="199">
            303.98 return
          </CharString>
          <CharString index="200">
            26.01 return
          </CharString>
          <CharString index="201">
            -36.99 return
          </CharString>
          <CharString index="202">
            1242.99 return
          </CharString>
          <CharString index="203">
            -47.99 return
          </CharString>
          <CharString index="204">
            vhcurveto
            -35 -822.99 rmoveto
            -145 -18 callsubr
            141 260 hvcurveto
            return
          </CharString>
          <CharString index="205">
            -101 17 callgsubr
            return
          </CharString>
          <CharString index="206">
            63.02 return
          </CharString>
          <CharString index="207">
            -78.01 return
          </CharString>
          <CharString index="208">
            55.99 return
          </CharString>
          <CharString index="209">
            -88.99 return
          </CharString>
          <CharString index="210">
            83.99 return
          </CharString>
          <CharString index="211">
            76.99 return
          </CharString>
          <CharString index="212">
            -128 -232 hvcurveto
            return
          </CharString>
          <CharString index="213">
            151.01 return
          </CharString>
          <CharString index="214">
            hlineto
            -80 -409.99 rlineto
            144 hlineto
            80 409.99 rlineto
            return
          </CharString>
          <CharString index="215">
            181 104 -97 callgsubr
            103.99998 -39 callsubr
            return
          </CharString>
          <CharString index="216">
            -7 -12 81 vhcurveto
            -1380.99 187 1495.98 vlineto
            29 return
          </CharString>
          <CharString index="217">
            -94 callsubr
            396 hlineto
            return
          </CharString>
          <CharString index="218">
            93 -66 callsubr
            return
          </CharString>
          <CharString index="219">
            hstem
            1 callsubr
            return
          </CharString>
          <CharString index="220">
            94 callsubr
            -47 return
          </CharString>
          <CharString index="221">
            -292.98 67 callgsubr
            169 callsubr
            return
          </CharString>
          <CharString index="222">
            91 callsubr
            1142.98999 -34 callgsubr
            return
          </CharString>
          <CharString index="223">
            164 callsubr
            67 callgsubr
            191 callsubr
            rlineto
            return
          </CharString>
          <CharString index="224">
            217 hlineto
            287.99 163 -192 -333 hvcurveto
            endchar
          </CharString>
          <CharString index="225">
            -66.99 return
          </CharString>
          <CharString index="226">
            -129.99 return
          </CharString>
          <CharString index="227">
            262.98 return
          </CharString>
          <CharString index="228">
            -95.99 return
          </CharString>
          <CharString index="229">
            -56.02 return
          </CharString>
          <CharString index="230">
            56.02 return
          </CharString>
          <CharString index="231">
            21.01 return
          </CharString>
          <CharString index="232">
            138.99 return
          </CharString>
          <CharString index="233">
            -86 callgsubr
            -14 callgsubr
            -39 callsubr
            return
          </CharString>
          <CharString index="234">
            -156 -24 -70.99 -87.02 -199 hhcurveto
            return
          </CharString>
          <CharString index="235">
            954.98 rmoveto
            -122 -111 -40 22 callgsubr
            return
          </CharString>
          <CharString index="236">
            260.01 132 99 120 callgsubr
            82 71 vhcurveto
            return
          </CharString>
          <CharString index="237">
            129 hstem
            433.99 159 vstem
            699.99 return
          </CharString>
          <CharString index="238">
            -44 callsubr
            64 149 121.98 vvcurveto
            endchar
          </CharString>
          <CharString index="239">
            193 227 238.98 250 183 -227 return
          </CharString>
          <CharString index="240">
            rmoveto
            -180 -113 -128 return
          </CharString>
          <CharString index="241">
            121 95 95 146 hvcurveto
            return
          </CharString>
          <CharString index="242">
            18 callgsubr
            hvcurveto
            return
          </CharString>
          <CharString index="243">
            125 458 125 return
          </CharString>
          <CharString index="244">
            -229.99 return
          </CharString>
          <CharString index="245">
            -114.02 return
          </CharString>
          <CharString index="246">
            216 hvcurveto
            21 vlineto
            return
          </CharString>
          <CharString index="247">
            -9.01 return
          </CharString>
          <CharString index="248">
            270.99 return
          </CharString>
          <CharString index="249">
            92.02 return
          </CharString>
          <CharString index="250">
            112.99 return
          </CharString>
          <CharString index="251">
            89.01 return
          </CharString>
          <CharString index="252">
            -54.99 return
          </CharString>
          <CharString index="253">
            -61.99 return
          </CharString>
          <CharString index="254">
            -44.99 return
          </CharString>
          <CharString index="255">
            -150.02 return
          </CharString>
          <CharString index="256">
            1536 hlineto
            hintmask 10111000
            -442 -1400.02 rmoveto
            return
          </CharString>
          <CharString index="257">
            -122 -93 98 callsubr
            return
          </CharString>
          <CharString index="258">
            -88 callsubr
            -45 158 callsubr
            return
          </CharString>
          <CharString index="259">
            -304.99 153 -216.98 268 return
          </CharString>
          <CharString index="260">
            -94 92 -121.02 -122.99 -93 -92 return
          </CharString>
          <CharString index="261">
            vlineto
            133 49 61 87 88 49 -61 -133 vhcurveto
            endchar
          </CharString>
          <CharString index="262">
            160 callgsubr
            -83 callsubr
            return
          </CharString>
          <CharString index="263">
            38.02 46 58 59 -38.02 return
          </CharString>
          <CharString index="264">
            -75 -40 -49 -63 -61 40 -46.98 75 76 return
          </CharString>
          <CharString index="265">
            -44 181 callgsubr
            return
          </CharString>
          <CharString index="266">
            hstem
            28 1282.99 vstem
            return
          </CharString>
          <CharString index="267">
            82.99 return
          </CharString>
          <CharString index="268">
            -177.99 return
          </CharString>
          <CharString index="269">
            119.01 return
          </CharString>
          <CharString index="270">
            -224.99 return
          </CharString>
          <CharString index="271">
            -292.99 return
          </CharString>
          <CharString index="272">
            95.01 return
          </CharString>
          <CharString index="273">
            vlineto
            -135 -48 -61 -87 -88 -50 61 135 vhcurveto
            return
          </CharString>
          <CharString index="274">
            -193 166 -100 257.98 -63 vhcurveto
            return
          </CharString>
          <CharString index="275">
            218.99 276.01 240 return
          </CharString>
          <CharString index="276">
            -58 callgsubr
            rlineto
            return
          </CharString>
          <CharString index="277">
            -1105 -547 146 return
          </CharString>
          <CharString index="278">
            -78 callgsubr
            -47 return
          </CharString>
          <CharString index="279">
            42 -40 callgsubr
            return
          </CharString>
          <CharString index="280">
            hstem
            166 callgsubr
            return
          </CharString>
          <CharString index="281">
            34 -35 44 hvcurveto
            endchar
          </CharString>
          <CharString index="282">
            -83 callsubr
            -45 -40 callgsubr
            return
          </CharString>
          <CharString index="283">
            1073.99 481.99 hstem
            return
          </CharString>
          <CharString index="284">
            80 callsubr
            -112 hlineto
            return
          </CharString>
          <CharString index="285">
            1536 rmoveto
            -561.01 vlineto
            82 return
          </CharString>
          <CharString index="286">
            319 hmoveto
            191 hlineto
            -167 1029 rlineto
            return
          </CharString>
          <CharString index="287">
            652.98 127 return
          </CharString>
          <CharString index="288">
            169.98 return
          </CharString>
          <CharString index="289">
            15.02 return
          </CharString>
          <CharString index="290">
            195.99 return
          </CharString>
          <CharString index="291">
            -92.02 return
          </CharString>
          <CharString index="292">
            185.02 return
          </CharString>
          <CharString index="293">
            243.99 return
          </CharString>
          <CharString index="294">
            49.99 return
          </CharString>
          <CharString index="295">
            176.99 return
          </CharString>
          <CharString index="296">
            156.01 return
          </CharString>
          <CharString index="297">
            -76.99 return
          </CharString>
          <CharString index="298">
            292.99 return
          </CharString>
          <CharString index="299">
            -14.99 return
          </CharString>
          <CharString index="300">
            -76 callgsubr
            38 46 58 59 -38 return
          </CharString>
          <CharString index="301">
            33 32 41 42 -33 3 callsubr
            return
          </CharString>
          <CharString index="302">
            145 81 -98 -89.01 hvcurveto
            return
          </CharString>
          <CharString index="303">
            -48 -55 -68.01 -68 -48 56 return
          </CharString>
        <CharString name=".notdef">
          246 -555 -99 callsubr
          90.01999 -6 callgsubr
          -7 callsubr
          139 callgsubr
          88.98 127.01 2 callgsubr
          161.99 144 callsubr
          65 151.01001 60 90.98999 62.99 89.02 100 88.98999 32 callsubr
          91.99 82 callsubr
          142 callsubr
          70 88.98999 100 89.01001 181 hstemhm
          250.98 200 89.01001 2 callgsubr
          102 callsubr
          269.98 -88.98 2 callgsubr
          144 callsubr
          207.99 hintmask 111111111111111101100000
          1106.98 2146 rmoveto
          -856 -2701 856 hlineto
          -207.99 2520 rmoveto
          -89 -178 -100 178 102 callsubr
          -448 2 callgsubr
          12 callsubr
          100 -175 89 vlineto
          267.02 -348 rmoveto
          -189 178 -92 -448 281 vlineto
          12 callsubr
          184 callsubr
          rmoveto
          102 callsubr
          -97 2 callgsubr
          hlineto
          270.01 -165 rmoveto
          102 callsubr
          -178 -189 -270 89 12 callsubr
          100 161 callsubr
          2 callgsubr
          vlineto
          448 -162 rmoveto
          -269.98 -448 31 callgsubr
          358.99 179 vlineto
          144 callsubr
          -329.99 rmoveto
          -305.01 -448 305.01 89 -216 269.98 127 102 callsubr
          146 callsubr
          184 callsubr
          151 vlineto
          270.01 -467.01 rmoveto
          -304.98 -448 304.98 vlineto
          hintmask 111100000000001010100000
          358.99 102 callsubr
          rmoveto
          -269.98 -127.02 269.98 hlineto
          144 callsubr
          -150.98 rmoveto
          -13 callsubr
          -86 vlineto
          -189 -125.99 rlineto
          275.01 -13 callsubr
          -448 -7 callsubr
          hlineto
          189 -6 callgsubr
          rlineto
          -189 -7 callsubr
          hlineto
          endchar
        </CharString>
        <CharString name=".null">
          -1105 endchar
        </CharString>
        <CharString name="A">
          -80 callsubr
          159 callsubr
          1111.98 hmoveto
          -105 callsubr
        </CharString>
        <CharString name="A.smcp">
          -46 callgsubr
          hstem
          85 callgsubr
          1118 vstem
          948 hmoveto
          -103 callsubr
        </CharString>
        <CharString name="AE">
          810 0 -103 callgsubr
          204 142 callgsubr
          155.99998 -103 callgsubr
          473.01 19 callgsubr
          958.48 179.51 -149.51 188 callsubr
          hintmask 00000000
          hintmask 11110100
          1176.99 150 rmoveto
          -23 532.99 rlineto
          584 150 hlineto
          hintmask 11111000
          -590 hlineto
          -19.99 473 rlineto
          691 150 -697 hlineto
          -137 hlineto
          -120 hlineto
          -880.98 54 callgsubr
          228.98 hlineto
          205 354 rlineto
          hintmask 11110100
          563 hlineto
          14.99 -354 rlineto
          152 hlineto
          733 150 hlineto
          -1363 377 rmoveto
          hintmask 11111000
          425 734 31 -734 rlineto
          endchar
        </CharString>
        <CharString name="AE.smcp">
          489 0 -101 callsubr
          153 -103 callgsubr
          82.01 -101 callsubr
          333.01 -101 callsubr
          hstemhm
          765.99 182 -161.52 179.51 hintmask 00000000
          hintmask 11110100
          972.98 -101 callsubr
          rmoveto
          11 callgsubr
          385 rlineto
          458 -101 callsubr
          hlineto
          hintmask 11111000
          -463 hlineto
          -12 333 rlineto
          537.99 -101 callsubr
          -543 hlineto
          -147.99 hlineto
          -118 hlineto
          -662 53 callsubr
          200 hlineto
          163 302 rlineto
          hintmask 11110100
          408.99 hlineto
          11 -302 rlineto
          160 hlineto
          570 -101 callsubr
          hlineto
          -1069 303 rmoveto
          hintmask 11111000
          303 562 85 callgsubr
          -562 rlineto
          endchar
        </CharString>
        <CharString name="Aacute">
          -80 callsubr
          98 293 159 callsubr
          998.99 1846.99 rmoveto
          -225 hlineto
          100 callgsubr
          -293 rlineto
          150 hlineto
          382 -1553.98 rmoveto
          -105 callsubr
        </CharString>
        <CharString name="Aacute.smcp">
          -46 callgsubr
          842.02 -9 callsubr
          85 callgsubr
          1118 vstem
          907.98 50 callgsubr
          -50 callgsubr
          hlineto
          309 -1273 rmoveto
          -103 callsubr
        </CharString>
        <CharString name="Acircumflex">
          -80 callsubr
          108.01001 75 callsubr
          159 callsubr
          672.99 1733.98 rmoveto
          150 -169.99 rlineto
          154 10 hlineto
          -248 24 callsubr
          588 -1564 rmoveto
          -105 callsubr
        </CharString>
        <CharString name="Acircumflex.smcp">
          -46 callgsubr
          852.02 75 callsubr
          hstem
          85 callgsubr
          1118 vstem
          581.98 14 callgsubr
          515.01 -1282.99 rmoveto
          -103 callsubr
        </CharString>
        <CharString name="Adieresis">
          -80 callsubr
          121 210 -208 210 hstemhm
          349.98 61 callsubr
          hintmask 11101110
          459.98 1578.99 rmoveto
          72 38 46 58 59 -38 47 -72 131 callgsubr
          hvcurveto
          hintmask 11110110
          430.02 -2 rmoveto
          -76 callgsubr
          39 -20 callsubr
          -39 18 callgsubr
          128 callgsubr
          hvcurveto
          221.99 -1576.98 rmoveto
          -105 callsubr
        </CharString>
        <CharString name="Adieresis.smcp">
          -46 callgsubr
          867.01 210 hstem
          -5 callgsubr
          -69 callgsubr
          vstem
          368.99 1297.98 rmoveto
          -36 callsubr
          -72 -35 callgsubr
          72 64 callgsubr
          28 callgsubr
          -26 callgsubr
          hvcurveto
          149 -1295.99 rmoveto
          -103 callsubr
        </CharString>
        <CharString name="Agrave">
          -80 callsubr
          98 293 159 callsubr
          762 1553.98 rmoveto
          -193 293 -26 callsubr
          -293 rlineto
          510 -1553.98 rmoveto
          -105 callsubr
        </CharString>
        <CharString name="Agrave.smcp">
          -46 callgsubr
          842.02 -9 callsubr
          85 callgsubr
          1118 vstem
          670.99 68 callsubr
          437 -1273 rmoveto
          -103 callsubr
        </CharString>
        <CharString name="Aring">
          -80 callsubr
          71 88 234.01001 2 callgsubr
          hstem
          456.99 100 232 99 vstem
          672.99 1526.99 rmoveto
          121 94 87 116 116 -94 92 -121 -123 -93 -92 -116 -116 93 -87 123 hvcurveto
          322.01 vmoveto
          68 48 122 callsubr
          -63 -60 -48 145 callsubr
          -68 -68 -48 101 callsubr
          59 63 48 123 callsubr
          68 hvcurveto
          438.99 -1849 rmoveto
          -105 callsubr
        </CharString>
        <CharString name="Aring.smcp">
          -46 callgsubr
          815.01 88 234 89 hstem
          365.99 149 callgsubr
          232.02 99 vstem
          581.98 1245.98 rmoveto
          105 callgsubr
          94 87 116 116.02 153 callsubr
          -116.02 -116 93 -87 122.99 hvcurveto
          322 vmoveto
          68.01 48 22 callsubr
          -63.02 -59.99 196 callsubr
          58.99 99 callsubr
          48 101 callsubr
          68 hvcurveto
          366.02 -1567.99 rmoveto
          -103 callsubr
        </CharString>
        <CharString name="Atilde">
          -80 callsubr
          118.01001 140 -45 140.98 hstemhm
          320.98 136 callsubr
          hintmask 00000000
          hintmask 11101110
          544.99 1669 rmoveto
          111 21 -95 136 hhcurveto
          hintmask 11110110
          134 callsubr
          86 callsubr
          122 callsubr
          vhcurveto
          -105.99 -49 -53 callgsubr
          21 callsubr
          hhcurveto
          hintmask 11101110
          -122 -93 4 callsubr
          17 callgsubr
          63 42.99 49 56 vhcurveto
          hintmask 11110110
          566.99 -1669 rmoveto
          -105 callsubr
        </CharString>
        <CharString name="Atilde.smcp">
          -46 callgsubr
          862.01 50 callsubr
          229.99 1 callgsubr
          458.01 1 callgsubr
          hintmask 00000000
          hintmask 11011100
          453.98 1387.99 rmoveto
          111 124 callsubr
          -95.01 13 callgsubr
          hhcurveto
          hintmask 11101100
          105 callgsubr
          28 callsubr
          165 callsubr
          146 hvcurveto
          96 callgsubr
          12 rlineto
          -64 -44 -49 22 callsubr
          vhcurveto
          -106 -17 callgsubr
          -18 callgsubr
          21 callsubr
          hhcurveto
          hintmask 11011100
          89 callsubr
          56 vhcurveto
          hintmask 11101100
          494.02 -1387.99 rmoveto
          -103 callsubr
        </CharString>
        <CharString name="B">
          171 91 callsubr
          525.98999 153 464 -97 callgsubr
          hstemhm
          -57 callsubr
          565 194 -156 194 hintmask 11110100
          904.99 767 rmoveto
          hintmask 11111000
          134 57 83 109 135 vvcurveto
          141 callsubr
          -178.02 117 -297 vhcurveto
          -478 -79 callsubr
          74 callgsubr
          hlineto
          436 hlineto
          hintmask 11110100
          291 190 -52 callsubr
          273 164 -89.99 139 -165 106 callgsubr
          hvcurveto
          -258.01 531.99 rmoveto
          hintmask 11111000
          189 92 -69 145 callgsubr
          -148 -111 -87 -165 hvcurveto
          -289 463.99 hlineto
          hintmask 11110100
          316 -1142.99 rmoveto
          -316 525.99 325 hlineto
          195.02 160 callsubr
          125 callgsubr
          -162 -160 -104.99 125 callgsubr
          -182 hvcurveto
          endchar
        </CharString>
        <CharString name="B.smcp">
          0 0 -103 callgsubr
          380.98999 140 343 -86 callsubr
          hstemhm
          -61 callgsubr
          464 187 -155.01001 187 hintmask 11110100
          793.99 607.99 rmoveto
          hintmask 11111000
          116 44 66 89 107 vvcurveto
          216.99 -167 100 -263.99 vhcurveto
          -407 -71 callsubr
          71 hlineto
          376 hlineto
          hintmask 11110100
          -5 callgsubr
          164 143 callsubr
          221 124 -72.99 115 -141 35 hvcurveto
          -249 406 rmoveto
          hintmask 11111000
          158 86 -53.99 92 callgsubr
          -111 -89 -58 107 callgsubr
          hvcurveto
          -233 343 hlineto
          hintmask 11110100
          260 -863.99 rmoveto
          -260 380.99 268.98 hlineto
          159 68 30 callgsubr
          -117 -115 83 callgsubr
          -70 -152 hvcurveto
          endchar
        </CharString>
        <CharString name="C">
          228 -20 -95 callgsubr
          1183 -34 callgsubr
          -33 callgsubr
          195 vstem
          1240.99 461.99 rmoveto
          100 callgsubr
          hlineto
          -205 -33 -80 -121 -246 hhcurveto
          -56 callsubr
          -407 227 -266.99 342 351.01 171 206.99 275 3 callsubr
          vhcurveto
          endchar
        </CharString>
        <CharString name="C.smcp">
          43 -72 callgsubr
          895.99 106 callsubr
          hstem
          82 callsubr
          -91 callsubr
          vstem
          1072.99 377 rmoveto
          -187 hlineto
          127 callsubr
          -63 callsubr
          -333.99 -14 callgsubr
          -212.99 301.02 302 -71 callgsubr
          164.98 228 25 vhcurveto
          endchar
        </CharString>
        <CharString name="C.ss06">
          306 -8 callsubr
          155.98 1185.00002 -34 callgsubr
          -6 callgsubr
          -77 callsubr
          vstem
          1309.98 461.99 rmoveto
          100 callgsubr
          hlineto
          -204 -32 121 callsubr
          -123 -234 hhcurveto
          -251 -182 230 332 hvcurveto
          63 vlineto
          331 163 229 261 224 117 -129 -202 30 vhcurveto
          -77 callsubr
          hlineto
          287.99 -32 callgsubr
          -205 200 -330.02 hhcurveto
          -364 -255 -288.01 -431 hvcurveto
          -43 callgsubr
          vlineto
          -431 272 -286.98 356 339.99 185 callsubr
          206.99 275.99 3 callsubr
          vhcurveto
          endchar
        </CharString>
        <CharString name="Ccedilla">
          228 -445 106 194.01 165 callgsubr
          -153.98999 43 -40.99 151.98 1183.00002 -97 callgsubr
          hstemhm
          -33 callgsubr
          195 434 -14 callsubr
          hintmask 00000000
          hintmask 10011110
          687.98 13 callgsubr
          rmoveto
          -56 callsubr
          -378 195 -257 302.98 -34.97 vhcurveto
          hintmask 11001110
          -29.99 -129 rlineto
          123 callgsubr
          140 callsubr
          49 -17.99 -68.02 vvcurveto
          -70 -74 -29 184 callsubr
          vhcurveto
          7 69 callsubr
          10.02 45 308.98 23 153 198 29 -5 callgsubr
          rlinecurve
          100 callgsubr
          hlineto
          hintmask 10011110
          -205 -33 -80 -121 -246 hhcurveto
          endchar
        </CharString>
        <CharString name="Ccedilla.smcp">
          43 -439 106 194.01 272.98 -146.98999 43 -42 162 callgsubr
          896 106 callsubr
          hstemhm
          82 callsubr
          -91 callsubr
          371.99998 -14 callsubr
          hintmask 00000000
          hintmask 10011110
          591.99 133.98 rmoveto
          -63 callsubr
          -307 164 -205 261 -30.98 vhcurveto
          hintmask 11001110
          -29 -127 rlineto
          112 140 callsubr
          43 callgsubr
          -17.99 -68.01 vvcurveto
          -70 -74 -29 -92 vhcurveto
          6.99 69 callsubr
          10.01 44 260 21.99 134 157 23 211 rlinecurve
          -187 hlineto
          hintmask 10011110
          127 callsubr
          endchar
        </CharString>
        <CharString name="D">
          239 115 callsubr
          168.98 194 668 192 vstem
          579.99 -8 callgsubr
          -217 hlineto
          -68 callgsubr
          -49 callsubr
          1142.99 117 callsubr
        </CharString>
        <CharString name="D.smcp">
          47 0 -103 callgsubr
          863.98999 -24 callsubr
          545 -89 callsubr
          499 18 callsubr
          -174 81 callgsubr
          -22 callsubr
          863.99 117 callgsubr
        </CharString>
        <CharString name="D.ss06">
          323 115 callsubr
          12 callsubr
          194 729.98999 183 callsubr
          vstem
          611.98 -8 callgsubr
          -239.99 hlineto
          -68 callgsubr
          89 hlineto
          327.99 hlineto
          410.01 191 callsubr
          273 432.99 hvcurveto
          43 vlineto
          432.99 -297 274 -389 vhcurveto
          490 -750 rmoveto
          -328.99 -190 -221 -318.01 vhcurveto
          -221.99 1142.99 238.98 hlineto
          295.02 196 -201.99 -346.01 hvcurveto
          endchar
        </CharString>
        <CharString name="E">
          59 0 -75 callsubr
          hstem
          168.98 194 vstem
          362.99 156 -91 callgsubr
        </CharString>
        <CharString name="E.smcp">
          -67 callsubr
          hstem
          137.99 7 callsubr
          942.98 150 rmoveto
          -95 callsubr
        </CharString>
        <CharString name="Eacute">
          59 0 -75 callsubr
          109.02 -9 callsubr
          -57 callsubr
          vstem
          944.99 1857.99 rmoveto
          -225 hlineto
          -194 164 callsubr
          rlineto
          150 hlineto
          -313 -1409 -91 callgsubr
        </CharString>
        <CharString name="Eacute.smcp">
          -67 callsubr
          108.02 292.98 -19 callgsubr
          vstem
          862.99 50 callgsubr
          150 hlineto
          349 -1123 rmoveto
          -95 callsubr
        </CharString>
        <CharString name="Ecircumflex">
          59 0 -75 callsubr
          119.02 75 callsubr
          hstem
          -57 callsubr
          vstem
          618.99 1745 193 callgsubr
          -248.02 273 rlineto
          -111.98 hlineto
          -246 -272 rlineto
          -11 153 vlineto
          33 callsubr
          -1419 -91 callgsubr
        </CharString>
        <CharString name="Ecircumflex.smcp">
          -67 callsubr
          118.02 75 callsubr
          -19 callgsubr
          vstem
          535.98 14 callgsubr
          555.99 -1133 rmoveto
          -95 callsubr
        </CharString>
        <CharString name="Edieresis">
          59 0 -75 callsubr
          164 callgsubr
          185 callgsubr
          hstemhm
          -57 callsubr
          -66.98999 -69 callgsubr
          hintmask 00000000
          hintmask 11110110
          406 1589.99 rmoveto
          193 callsubr
          18 callgsubr
          -53 callsubr
          27 callgsubr
          -84 callgsubr
          64 callgsubr
          47 callsubr
          46.99 -81 callgsubr
          -72 94 callsubr
          -46.99 58 callsubr
          72 hvcurveto
          hintmask 11101000
          -473 -1432 -91 callgsubr
        </CharString>
        <CharString name="Edieresis.smcp">
          -67 callsubr
          131.02 210 hstemhm
          -61 callgsubr
          -111 -69 callgsubr
          hintmask 00000000
          hintmask 11110110
          323.99 1297.98 rmoveto
          -76 callgsubr
          38 -20 callsubr
          -38 18 callgsubr
          -72 -35 callgsubr
          72 64 callgsubr
          28 callgsubr
          -48 callsubr
          hvcurveto
          188.99 -1146 rmoveto
          hintmask 11101000
          -95 callsubr
        </CharString>
        <CharString name="Egrave">
          59 0 -75 callsubr
          109.02 -9 callsubr
          -57 callsubr
          vstem
          707.99 1565 rmoveto
          -193 191 callsubr
          -26 callsubr
          164 callsubr
          rlineto
          -185 -1409 -91 callgsubr
        </CharString>
        <CharString name="Egrave.smcp">
          -67 callsubr
          108.02 292.98 -19 callgsubr
          vstem
          625.99 1273 rmoveto
          -193 292.98 -26 callsubr
          66 callgsubr
          477 -1123 rmoveto
          -95 callsubr
        </CharString>
        <CharString name="Eth">
          239 91 callsubr
          509.98999 -103 callgsubr
          483.01 6 callsubr
          668 192 vstem
          579.99 -8 callgsubr
          -217 hlineto
          -194 -640 -163 -150 163 -665.99 -49 callsubr
          509.99 281 150 -281 483 117 callsubr
        </CharString>
        <CharString name="Eth.smcp">
          47 0 -103 callgsubr
          363.98999 -103 callgsubr
          350.01 -24 callsubr
          545 -89 callsubr
          499 18 callsubr
          -174 hlineto
          -187 -501 -205.98 -150 205.98 -513.99 -22 callsubr
          363.99 245 150 -245 350 117 callgsubr
        </CharString>
        <CharString name="Euro">
          46 -20 -63 callgsubr
          406.98999 123 137.99 124 393.02 -95 callgsubr
          hstem
          273.98 194 vstem
          814.98 134.98 rmoveto
          -207 -135 131 275.99 -5 hvcurveto
          383 123 -383 137.99 383 124.01 -383 hlineto
          267 143 callgsubr
          132 184 callgsubr
          205 hhcurveto
          104 callsubr
          76 -14.01 -8 callsubr
          66.01 hvcurveto
          20 -65 callsubr
          rlineto
          19 -82 -75 12 -52 callgsubr
          hhcurveto
          -310 -216 -184 -365 -12 hvcurveto
          -178 -124.01 177 -137.99 -177 -123 178 hlineto
          -373.99 6 220.02 -188 313 hhcurveto
          83.01 188 callgsubr
          11.02 18.98 74 callgsubr
          hvcurveto
          -20 158.99 rlineto
          -22 29 callsubr
          -74 -12 -77 hhcurveto
          endchar
        </CharString>
        <CharString name="Euro.smcp">
          -108 -72 callgsubr
          272.00002 121 108.98999 121 274 -32 callsubr
          hstemhm
          -43 callsubr
          341.99 -190.99 -99 callsubr
          hintmask 11110100
          698 133.98 rmoveto
          hintmask 11111000
          -174.02 186 callgsubr
          142 callsubr
          180 -20 hvcurveto
          408 121 hlineto
          hintmask 11110100
          -413 109 413 121 hlineto
          hintmask 11111000
          -408 hlineto
          180 20 93 94 174 hhcurveto
          -34 callsubr
          63 -6.98 -21.02 68.01 hvcurveto
          21 147 rlineto
          19 -81 -66 12 83 callgsubr
          hhcurveto
          -275 -170.99 -149 -275 -28.02 hvcurveto
          -154.99 -121 hlineto
          hintmask 11110100
          151 -109 hlineto
          hintmask 11111000
          -151 -121 154 hlineto
          -277.02 28 173 -144.97 276 hhcurveto
          160 callsubr
          43 callsubr
          11 85 callgsubr
          -40 callsubr
          hvcurveto
          -27 -50 callsubr
          rlineto
          hintmask 11110100
          -18.99 -69 -55 -10.01 5 callgsubr
          hhcurveto
          endchar
        </CharString>
        <CharString name="F">
          27 0 43 600.99 -95 callgsubr
          498.99998 6 callsubr
          vstem
          1070.98 1298.98 rmoveto
          157 -708 vlineto
          -194 180 callgsubr
          643.99 609 156 -609 499 hlineto
          endchar
        </CharString>
        <CharString name="F.smcp">
          -134 0 43 456.99 151.98 362.01 -24 callsubr
          vstem
          922.99 1013.99 rmoveto
          151 -598 vlineto
          -22 callgsubr
          187 500 518 151.99 -518 362 hlineto
          endchar
        </CharString>
        <CharString name="G">
          290 -20 -95 callgsubr
          434 -63 callgsubr
          594.01 -34 callgsubr
          122 -77 callsubr
          735 193 vstem
          1245 191 rmoveto
          534 -529.02 -155 336.02 -328 vlineto
          -44 30 callsubr
          -76 -62 163 callgsubr
          hhcurveto
          -248.02 122 callgsubr
          199 336 hvcurveto
          117 vlineto
          327 121 204 270 222 94 -132.02 -157 26.99 vhcurveto
          194 hlineto
          258 -37 -167 188 -334 hhcurveto
          -376 -209 -256 -434.01 hvcurveto
          -115 vlineto
          -435 252.99 -256 355 327 133 131.99 189 callgsubr
          55 vhcurveto
          endchar
        </CharString>
        <CharString name="G.smcp">
          91 -72 callgsubr
          314.01001 12 callgsubr
          438.98999 106 callsubr
          hstem
          98.97 188 605.01 -89 callsubr
          1077.99 150 rmoveto
          441 -466 31 callsubr
          280 -239 vlineto
          -30 -65 callgsubr
          -65 -29 callsubr
          -164 hhcurveto
          -210 -134 148 258.01 hvcurveto
          87 vlineto
          252.99 104 150 219.02 13 callsubr
          77 -93.99 -123 23 vhcurveto
          185 hlineto
          214 -32 callgsubr
          -143 154 -296 hhcurveto
          -321 -188 -206 -350 hvcurveto
          -33 callsubr
          vlineto
          -351.01 219.02 -204.98 309 279 122 101.99 64 50 vhcurveto
          endchar
        </CharString>
        <CharString name="G.ss06">
          350 -8 callsubr
          155.98 434.00002 -71 callgsubr
          597.01 -34 callgsubr
          -6 callgsubr
          -77 callsubr
          796.99998 194 vstem
          1311.99 191 rmoveto
          531.99 -528 -153.99 333.99 -327 vlineto
          -44 -35.99 -105 -63 -194 hhcurveto
          -263 -199 220 360.02 hvcurveto
          29 vlineto
          349 176 227 250 247 92 -133.02 -157 31 vhcurveto
          -77 callsubr
          hlineto
          258 -40 -170 189 -355 hhcurveto
          -357.99 -263 -278.02 -456.99 hvcurveto
          -27 vlineto
          -458.02 287 -277.97 370 314 162 132.97 189 callgsubr
          53 vhcurveto
          endchar
        </CharString>
        <CharString name="H">
          356 0 43 630.99 -95 callgsubr
          585.03998 -86 callgsubr
          -57 callsubr
          732 194 vstem
          1094.98 -8 callgsubr
          -625.99 -732 625.99 -194 180 callgsubr
          674 732 -674 194 -70 callgsubr
          vlineto
          endchar
        </CharString>
        <CharString name="H.smcp">
          147 0 43 455.99 -24 callsubr
          601.98999 -89 callsubr
          926.99 18 callsubr
          -514.99 -601.99 514.99 -22 callgsubr
          187 499 601.99 -499 186 -64 callgsubr
          vlineto
          endchar
        </CharString>
        <CharString name="I">
          27 callsubr
          hstem
          13 callsubr
          194 vstem
          377 hmoveto
          -70 callgsubr
          -68 callgsubr
          vlineto
          endchar
        </CharString>
        <CharString name="I.smcp">
          -616 0 43 91 callgsubr
          337.98 hmoveto
          -38 callsubr
        </CharString>
        <CharString name="Iacute">
          27 callsubr
          109.01001 -9 callsubr
          13 callsubr
          194 vstem
          379.99 1857.99 rmoveto
          100 callgsubr
          116 callsubr
          -228 -1857.99 rmoveto
          -70 callgsubr
          -68 callgsubr
          vlineto
          endchar
        </CharString>
        <CharString name="Iacute.smcp">
          68 callgsubr
          345.99 1565.98 rmoveto
          -194 66 callgsubr
          -50 callgsubr
          hlineto
          268.98 169 callsubr
          -233 -1565.98 rmoveto
          -38 callsubr
        </CharString>
        <CharString name="Icircumflex">
          27 callsubr
          119.01001 75 callsubr
          hstem
          13 callsubr
          194 vstem
          582.98 1584.99 15 callgsubr
          163 callgsubr
          -1574.99 rmoveto
          -70 callgsubr
          -68 callgsubr
          vlineto
          endchar
        </CharString>
        <CharString name="Icircumflex.smcp">
          -616 0 43 1239.99 75 callsubr
          91 callgsubr
          547.98 1292.98 15 callgsubr
          -210 -1282.99 rmoveto
          -38 callsubr
        </CharString>
        <CharString name="Idieresis">
          27 callsubr
          132.01001 185 callgsubr
          hstemhm
          -83 callsubr
          219.98 7.00002 194 10 -80 callgsubr
          hintmask 00000000
          hintmask 11110100
          74 callsubr
          1799.99 rmoveto
          -81 callgsubr
          27 callgsubr
          71.99 72 -44 callgsubr
          46 58 59 -78 callgsubr
          47 -72 hvcurveto
          430 -2 rmoveto
          -81 callgsubr
          -37 -46.99 64 callsubr
          -84 callgsubr
          39 46 58 59 -39 46.99 -53 callsubr
          hvcurveto
          hintmask 11101000
          -27 callgsubr
          -1797.98 rmoveto
          -70 callgsubr
          -68 callgsubr
          vlineto
          endchar
        </CharString>
        <CharString name="Idieresis.smcp">
          -616 0 43 1252.99 210 hstemhm
          -78 -80 callgsubr
          9 -66 callsubr
          182 callsubr
          -80 callgsubr
          hintmask 00000000
          hintmask 11101000
          -88 callsubr
          1507.98 rmoveto
          -71.98 -38 -47 -58.99 -58 38 -46.02 71.98 -36 callsubr
          64 callgsubr
          -72 113 callsubr
          58 callsubr
          72 -47 callsubr
          hvcurveto
          hintmask 11010000
          -124 -1506 rmoveto
          -38 callsubr
        </CharString>
        <CharString name="Igrave">
          27 callsubr
          109.01001 -9 callsubr
          13 callsubr
          194 vstem
          367.98 1565 rmoveto
          -193 191 callsubr
          rlineto
          -225.98 hlineto
          258.98 164 callsubr
          rlineto
          169 -1565 rmoveto
          -70 callgsubr
          -68 callgsubr
          vlineto
          endchar
        </CharString>
        <CharString name="Igrave.smcp">
          68 callgsubr
          333.99 1273 rmoveto
          -193 169 callsubr
          -225.97 hlineto
          258.98 66 callgsubr
          163.99 -1273 rmoveto
          -38 callsubr
        </CharString>
        <CharString name="J">
          25 9 callsubr
          hstem
          52.98 194 532.01001 -14 callgsubr
          vstem
          779 -8 callgsubr
          -1030 vlineto
          -189.99 -114.01 -100 -152 -156 -110 83 146 callgsubr
          vhcurveto
          -194 hlineto
          -286.98 192 -136 268 268 192 157 288.99 vhcurveto
          1030 vlineto
          endchar
        </CharString>
        <CharString name="J.smcp">
          -130 -72 callgsubr
          hstem
          42.99 188 426.98999 188 vstem
          657.98 18 callsubr
          -826 vlineto
          -129 -81.98 -76 -119.01 -136 -89.99 58.02 139 vhcurveto
          -188 hlineto
          -236 178 -110.98 236 223.99 165 132.97 222 vhcurveto
          826 vlineto
          endchar
        </CharString>
        <CharString name="K">
          180 -66 callgsubr
          -57 callsubr
          vstem
          1053.98 hmoveto
          232 hlineto
          -616.99 814 572.99 641.99 rlineto
          -234 hlineto
          -645 -717.99 rlineto
          717.99 -194 180 callgsubr
          494 vlineto
          178 184 rlineto
          endchar
        </CharString>
        <CharString name="K.alt">
          211 0 43 611.99 159 601.02998 -86 callgsubr
          12 callsubr
          194 vstem
          1072.99 hmoveto
          238 hlineto
          -598 751.98 555.99 704 rlineto
          -240.99 hlineto
          -507 -641.99 rlineto
          -149 641.99 -194 180 callgsubr
          654.99 175.99 hlineto
          endchar
        </CharString>
        <CharString name="K.alt2">
          237 -66 callgsubr
          12 callsubr
          194 vstem
          1275.99 hmoveto
          -699.99 746.99 659.99 709 rlineto
          -241.99 hlineto
          -611 -647 rlineto
          -11 647 -194 180 callgsubr
          692 hlineto
          664.99 -692 rlineto
          endchar
        </CharString>
        <CharString name="K.smcp">
          4 0 43 -19 callgsubr
          vstem
          884.98 hmoveto
          227 hlineto
          -512 646.98 478 518 rlineto
          -228.99 hlineto
          -395.02 -412 -128.99 -142 rlineto
          554 -22 callgsubr
          187 378.98 vlineto
          82 callgsubr
          141 rlineto
          endchar
        </CharString>
        <CharString name="L">
          -2 91 callsubr
          1259.02998 -86 callgsubr
          -57 callsubr
          vstem
          362.99 156 rmoveto
          1299.99 -68 callgsubr
          32 callgsubr
          vlineto
          728 156 hlineto
          endchar
        </CharString>
        <CharString name="L.smcp">
          -156 0 -103 callgsubr
          -19 callgsubr
          vstem
          325 150 rmoveto
          1014.99 -22 callgsubr
          3 callgsubr
          vlineto
          628 150 hlineto
          endchar
        </CharString>
        <CharString name="M">
          684 0 43 1131.99 165 callgsubr
          -279.99 280 -40.96 -97 callsubr
          hstemhm
          168.98 193 1064 193 hintmask 10011100
          1618.98 -8 callgsubr
          -250 hlineto
          -475 -1189.99 -475.02 1189.99 rlineto
          83 callgsubr
          hlineto
          -166 -79 callsubr
          193 569 hlineto
          hintmask 11001100
          -18 606 476.02 -1175 rlineto
          82 callgsubr
          hlineto
          hintmask 10101100
          477 1175.98 -18 -606.99 rlineto
          -569 193 vlineto
          endchar
        </CharString>
        <CharString name="M.smcp">
          433 0 43 hstem
          137.99 -99 callsubr
          890.01 -89 callsubr
          1399.99 18 callsubr
          -242 hlineto
          -389 -913 -389 913 rlineto
          -83 hlineto
          -158.99 -71 callsubr
          186 402.98 hlineto
          -19 525 395 -927.99 rlineto
          137 hlineto
          396 930 -19 -527.02 rlineto
          -402.98 186 vlineto
          endchar
        </CharString>
        <CharString name="N">
          356 -66 callgsubr
          -57 callsubr
          734.01001 192 vstem
          1288.99 hmoveto
          24 callgsubr
        </CharString>
        <CharString name="N.smcp">
          146 0 43 -19 callgsubr
          601.98999 -89 callsubr
          1112.99 hmoveto
          23 callgsubr
        </CharString>
        <CharString name="Ntilde">
          356 -11 callgsubr
          118.01001 140 -45 140.98 hstemhm
          -57 callsubr
          11 136 callsubr
          15.01001 192 hintmask 00000000
          hintmask 11101010
          1082 1815 rmoveto
          86 callsubr
          -56 vhcurveto
          -106 -17 callgsubr
          -53 callgsubr
          21 callsubr
          hhcurveto
          hintmask 11010101
          -122 -93 4 callsubr
          47 callgsubr
          hintmask 11101010
          134 callsubr
          hintmask 11101001
          207 -1815 rmoveto
          24 callgsubr
        </CharString>
        <CharString name="Ntilde.smcp">
          146 0 43 1249.98 50 callsubr
          -61 callgsubr
          -53 1 callgsubr
          458.01 1 callgsubr
          -53.00002 -99 callsubr
          hintmask 00000000
          hintmask 11010100
          979.99 1533.99 rmoveto
          96 callgsubr
          12 rlineto
          -64 -44 26 callsubr
          hintmask 10101010
          89 callsubr
          101 callsubr
          vhcurveto
          111 124 callsubr
          -95.01 13 callgsubr
          hhcurveto
          hintmask 11010100
          121 95 165 callsubr
          146 hvcurveto
          hintmask 11010010
          133 -1533.99 rmoveto
          23 callgsubr
        </CharString>
        <CharString name="O">
          -23 callgsubr
          7 callgsubr
          1289.99 680.98 -106 callgsubr
        </CharString>
        <CharString name="O.smcp">
          -74 callsubr
          hstem
          -54 callsubr
          vstem
          1116 547.98 -107 callgsubr
        </CharString>
        <CharString name="O.ss06">
          400 8 callsubr
          44 vlineto
          425.99 109 callgsubr
          -425.99 vhcurveto
          -44 vlineto
          -426.99 280 -299.98 346.99 357.01 265.99 299.98 426.99 vhcurveto
          -192 46 rmoveto
          -46 vlineto
          -338 -179 -227 -252 -239 -194.99 227 338 vhcurveto
          46 vlineto
          335.02 132 callsubr
          -335.02 vhcurveto
          endchar
        </CharString>
        <CharString name="OE">
          849 -8 callsubr
          149.98 -128.98999 -75 callsubr
          -129.98 -86 callsubr
          hstemhm
          161 callgsubr
          187 584.01001 194 hintmask 01110110
          1070 156 rmoveto
          518 628.98 156 -628.98 468.99 721 157 -721 vlineto
          -116 hlineto
          hintmask 10101110
          11 -13 callsubr
          125 callgsubr
          10.02 -17 callsubr
          hhcurveto
          -331 -224 -244 -353.02 hvcurveto
          -303.98 vlineto
          -353.02 226.02 -243.98 331 vhcurveto
          hintmask 01110110
          101.99 100 11 99 callgsubr
          -7 callsubr
          hvcurveto
          104 callsubr
          hlineto
          770.01 156 hlineto
          hintmask 10101110
          -1509.01 420 rmoveto
          305.99 vlineto
          290 142 154 226 75 32 callsubr
          -5.02 -9 68 vhcurveto
          -1168 vlineto
          140 callsubr
          29 callsubr
          -73 -6 -73.99 hhcurveto
          -226 -144.02 32 callgsubr
          291 hvcurveto
          endchar
        </CharString>
        <CharString name="Oacute">
          -23 callgsubr
          79.98999 293 7 callgsubr
          808 1849 rmoveto
          -194 49 callsubr
          257 -1168.02 -106 callgsubr
        </CharString>
        <CharString name="Oacute.smcp">
          -74 callsubr
          92 -9 callsubr
          -54 callsubr
          vstem
          707.99 1565.98 rmoveto
          -194 114 callsubr
          183 -1018 -107 callgsubr
        </CharString>
        <CharString name="Ocircumflex">
          -23 callgsubr
          89.98999 33 callgsubr
          7 callgsubr
          1011 1576 rmoveto
          -248.02 273 rlineto
          -111.99 42 callgsubr
          149 170 183 callgsubr
          154 hlineto
          279 -885 -106 callgsubr
        </CharString>
        <CharString name="Ocircumflex.smcp">
          -74 callsubr
          102 75 callsubr
          hstem
          -54 callsubr
          vstem
          910.99 1292.98 rmoveto
          158 callgsubr
          -246 -272 rlineto
          -11 153 vlineto
          149 170 183 callgsubr
          154 hlineto
          205 -735.01 -107 callgsubr
        </CharString>
        <CharString name="Odieresis">
          -23 callgsubr
          102.98999 210 -207.98999 210 hstemhm
          44 callgsubr
          193 32 callsubr
          -80 callgsubr
          210.98999 220.01 63.00002 192 hintmask 11011101
          494 1791 rmoveto
          -72 27 callgsubr
          72 193 callsubr
          135 callsubr
          hintmask 11101111
          430 -2 rmoveto
          -53 callsubr
          174 callgsubr
          -84 callgsubr
          6 callgsubr
          hvcurveto
          366 -1108 -106 callgsubr
        </CharString>
        <CharString name="Odieresis.smcp">
          -74 callsubr
          115 210 hstemhm
          -53 callgsubr
          -91 callsubr
          3.01 -69 callgsubr
          -4.01001 185.01 hintmask 00000000
          hintmask 11101100
          393.99 1507.98 rmoveto
          -72 -35 callgsubr
          72 -76 callgsubr
          38 -20 callsubr
          -38 47 -71.99 64 callgsubr
          -48 callsubr
          -47 callsubr
          hvcurveto
          hintmask 11010010
          292 -958.02 -107 callgsubr
        </CharString>
        <CharString name="Ograve">
          -23 callgsubr
          79.98999 293 7 callgsubr
          796 1555.99 -41 callgsubr
          654 -875 -106 callgsubr
        </CharString>
        <CharString name="Ograve.smcp">
          -74 callsubr
          92 -9 callsubr
          -54 callsubr
          vstem
          695.99 1273 rmoveto
          -193 292.98 -26 callsubr
          66 callgsubr
          580.02 -725.02 -107 callgsubr
        </CharString>
        <CharString name="Oslash">
          305 -20 161.99 1018.02998 -97 callsubr
          112.01001 163 7 callgsubr
          1309.98 1515.99 rmoveto
          -140.99 hlineto
          -103.02 -164 rlineto
          81 121 callsubr
          -123 43 31 callsubr
          hhcurveto
          -345.01 -241 -266 -436.02 hvcurveto
          -93 vlineto
          -236 71 -185 120 -121 vhcurveto
          -145 -231.99 rlineto
          144.02 hlineto
          -53 callgsubr
          -63 callgsubr
          rlineto
          -53 87 102.01 -29 143 callsubr
          hhcurveto
          355 229 264.98 436 hvcurveto
          93 vlineto
          202 -50 166 102 callsubr
          119 vhcurveto
          -840.01 -580.01 rmoveto
          95 vlineto
          346.99 155 190.02 238.02 110.98 91.01 -38 -74 74 callsubr
          vhcurveto
          -564 -904 rlineto
          -62 91.01 -35 129 163.99 vvcurveto
          787 95 rmoveto
          -95 vlineto
          -349 -142 -190 -250 -81 -71 22 43 -59 vhcurveto
          548 881.01 rlineto
          36 -83.01 19 -104 -45 callsubr
          vvcurveto
          endchar
        </CharString>
        <CharString name="Oslash.smcp">
          107 -23 callsubr
          884.99 -91 callsubr
          -179.99 154 hstemhm
          -54 callsubr
          hintmask 00000000
          hintmask 11011000
          983 1021.99 rmoveto
          123.99 185 rlineto
          -150 hlineto
          hintmask 10111000
          -69 -103 rlineto
          50 100 callsubr
          121 callsubr
          27.01 -109 hhcurveto
          -301.02 -208 -214.02 -350.99 hvcurveto
          -68.02 vlineto
          -175.99 53 -141 31 callgsubr
          -98 vhcurveto
          -128 -190.99 rlineto
          151 hlineto
          74 callgsubr
          111.98 rlineto
          -46 104 callsubr
          91.02 -23.98 101.99 hhcurveto
          307 -19 callsubr
          212.99 350.99 hvcurveto
          68.02 vlineto
          hintmask 11011000
          169.99 -48 138.02 -85 98 vhcurveto
          hintmask 10111000
          -702.01 -474.01 rmoveto
          70 vlineto
          263 127 146 197.02 104 callsubr
          64 -20.01 -40 187 callgsubr
          vhcurveto
          -456 -681.99 rlineto
          -39 -43 callsubr
          -21.01 88 107.99 vvcurveto
          649.99 hmoveto
          -263.98 -46 callsubr
          -147 -206 -69 -60 18 35 138 callgsubr
          vhcurveto
          451.99 676.99 rlineto
          33.02 -64.98 17.98 -52 callgsubr
          -100 vvcurveto
          endchar
        </CharString>
        <CharString name="Otilde">
          -23 callgsubr
          100 140 -45.01001 141 hstemhm
          44 callgsubr
          193 43.98999 136 callsubr
          35.01001 192 hintmask 00000000
          hintmask 11101011
          1062.99 1816.99 152 callgsubr
          -48.99 -56 vhcurveto
          -105.99 -49 -53 callgsubr
          -112.99 hhcurveto
          hintmask 11011101
          -122 -93.03 -101 -145 hvcurveto
          -7 callgsubr
          -6.99 rlineto
          63 43 43 callgsubr
          56 vhcurveto
          111 84 callsubr
          186 callgsubr
          136 hhcurveto
          hintmask 11101011
          121 95 28 callsubr
          146 hvcurveto
          hintmask 11101001
          227 -1136 -106 callgsubr
        </CharString>
        <CharString name="Otilde.smcp">
          -74 callsubr
          111.98999 50 callsubr
          -53 callgsubr
          -91 callsubr
          -25.99 1 callgsubr
          457.99998 125 -32.01 185.01 hintmask 00000000
          hintmask 11101010
          962.99 1533.99 rmoveto
          160 callgsubr
          -44 26 callsubr
          hintmask 11010101
          89 callsubr
          56 vhcurveto
          111 84 callsubr
          -95.01 136 hhcurveto
          hintmask 11101010
          121 165 callsubr
          165 callsubr
          146 hvcurveto
          hintmask 11101001
          153 -986.01 -107 callgsubr
        </CharString>
        <CharString name="P">
          188 0 43 527.98 189 callsubr
          571.99 6 callsubr
          661.02 -14 callgsubr
          vstem
          706.99 -8 callgsubr
          -538.01 180 callgsubr
          570.98 344 hlineto
          329.99 181 160 281 -5 callgsubr
          -181 185 -329.99 hvcurveto
          -728.99 vmoveto
          -344 571.99 344 hlineto
          224.99 142 callsubr
          -139 -150 -165 184 callsubr
          -46 callsubr
          163 callsubr
          hvcurveto
          endchar
        </CharString>
        <CharString name="P.smcp">
          12 0 43 395.98 -86 callsubr
          424.01 -24 callsubr
          540 7 callsubr
          605.98 18 callsubr
          -467.99 -71 callsubr
          187 438.99 165 callgsubr
          hlineto
          286 160 135 223.99 214.02 -160 -59 callsubr
          -286 hvcurveto
          -575 vmoveto
          -280.98 424 165 callgsubr
          hlineto
          183 76 -104 -113.99 92 callgsubr
          -76 -86 -183 hvcurveto
          endchar
        </CharString>
        <CharString name="Q">
          -23 callgsubr
          hstem
          108.99 -14 callgsubr
          785.99998 193 vstem
          1286.98 -127 rmoveto
          -259.99 204.98 rlineto
          160.99 115 94 209 279 vvcurveto
          93 vlineto
          436.02 -231 266 -356 -345 -240.99 -266 -436.02 vhcurveto
          -93 vlineto
          -436 243 -264.98 345.01 53 51 6 12 47 vhcurveto
          308 -245 rlineto
          -853.01 927.99 rmoveto
          95 vlineto
          346.99 155 190.02 237 249 145 -190.02 -346.99 vhcurveto
          -95 vlineto
          -349 107 callgsubr
          -190 -250 -237.02 -157 190 349 vhcurveto
          endchar
        </CharString>
        <CharString name="Q.smcp">
          -74 callsubr
          hstem
          2 callgsubr
          -99 callsubr
          650.01 -91 callsubr
          vstem
          1112.99 -93 rmoveto
          -217.99 161.99 rlineto
          13 callgsubr
          93 189 callgsubr
          21 callgsubr
          220 vvcurveto
          68.02 vlineto
          350.99 -203 214.02 -308 -301.02 -209 -214.02 -350.99 vhcurveto
          -68.02 vlineto
          -350.99 211 -212.99 301 43 42 3.99 143 callgsubr
          39 vhcurveto
          262 -200 rlineto
          -712.01 750.98 rmoveto
          70 vlineto
          263 184 callgsubr
          146 198 35 callgsubr
          147 callgsubr
          -146 -263 vhcurveto
          -70 vlineto
          -263.98 -118 -147 -206 -198 -128 147 263.98 vhcurveto
          endchar
        </CharString>
        <CharString name="Q.ss06">
          403 8 callsubr
          42 vlineto
          427.99 109 callgsubr
          -427.99 vhcurveto
          -42 vlineto
          -427.99 280 -298.98 346.99 40 40 4 7 38 vhcurveto
          306 -242.02 132 120.02 -250.02 183 callsubr
          rlineto
          193 116.98 124 233 292 vvcurveto
          -1056.99 hmoveto
          44 vlineto
          337 132 callsubr
          -337 vhcurveto
          -44 vlineto
          -339 -179 -226 -252 -239 -194.99 226 339 vhcurveto
          endchar
        </CharString>
        <CharString name="R">
          156 0 43 546.98 -95 callgsubr
          553.01 6 callsubr
          604 195 vstem
          884 629.99 rmoveto
          174 75 callgsubr
          104 140.99 181 vvcurveto
          284.02 -183 -59 callsubr
          -327.99 vhcurveto
          -482.02 180 callgsubr
          589.99 339 hlineto
          316 -589.99 rlineto
          208 11.98 hlineto
          -863 734 rmoveto
          553 288.01 vlineto
          221 28 callsubr
          -111 -169 -151 -104 -122 -207 hvcurveto
          endchar
        </CharString>
        <CharString name="R.alt">
          251 0 24.99 603.98999 189 callsubr
          513.99 -97 callgsubr
          hstemhm
          12 callsubr
          194 618.98999 194 -184 194 hintmask 11111000
          1184.99 235.99 rmoveto
          133 vlineto
          163 -57 128 -171 53 vhcurveto
          hintmask 11110100
          153 65 84.99 112 151 vvcurveto
          141 callsubr
          -173 144 -317.99 vhcurveto
          -526.01 180 callgsubr
          628.98 356.99 hlineto
          hintmask 11111000
          163 99 -104 -158 hvcurveto
          -128.99 vlineto
          -53 2 -131 60 -53.99 vhcurveto
          198.99 24.99 hlineto
          -52 49 192 callsubr
          81 81 vvcurveto
          hintmask 11110100
          -501 549 rmoveto
          -312 513.99 330 hlineto
          211.99 87 4 callsubr
          -157 -164 -87 -92 137 callsubr
          hvcurveto
          endchar
        </CharString>
        <CharString name="R.smcp">
          -7 0 43 406.98 -103 callgsubr
          414.01 -24 callsubr
          496.98999 7 callsubr
          774.98 492.99 rmoveto
          146 54.99 88 -28 callsubr
          -63 callgsubr
          vvcurveto
          228 -162 127 -283 vhcurveto
          -426 -71 callsubr
          187 449.99 276.99 hlineto
          260 -449.99 rlineto
          200 99 callgsubr
          hlineto
          -737 1004 rmoveto
          239 hlineto
          179 79 -86 -45 callsubr
          -116 -85 -87 -168 hvcurveto
          -244 hlineto
          endchar
        </CharString>
        <CharString name="S">
          111 -20 -95 callgsubr
          1183 -97 callgsubr
          hstemhm
          81 -14 callgsubr
          -147.99 -77 callsubr
          621.98999 195 hintmask 11011000
          598 651 rmoveto
          274.98 -80.02 71 -65.99 -137.02 vvcurveto
          107 callgsubr
          -111.98 -13 callsubr
          -201.02 vhcurveto
          hintmask 11101000
          -187 -169 86 200 hvcurveto
          100 callgsubr
          hlineto
          -291 165 callgsubr
          -151 269 308 200 153 237 226 -148 128 -330 93 vhcurveto
          hintmask 11011000
          -239 75 callgsubr
          -100 76 95 callgsubr
          vvcurveto
          135 95 101 204 217.99 102.01 -119.01 -164 vhcurveto
          -77 callsubr
          hlineto
          228 -185 212 -330 -298 -196 -169 -227 -226 146 callgsubr
          92 callgsubr
          287.01 182 callgsubr
          vhcurveto
          endchar
        </CharString>
        <CharString name="S.smcp">
          -49 -15.99 -101 callsubr
          897.98 -32 callsubr
          167 callgsubr
          508 187.99 hintmask 11011000
          530.98 505 rmoveto
          87 callsubr
          hintmask 11101000
          145 callgsubr
          -133 -38 callgsubr
          155 hvcurveto
          -188 hlineto
          -246 245 -118.98 235.99 266.02 175.99 120.97 195 191 -144 -28 callsubr
          -258.99 74 callsubr
          vhcurveto
          hintmask 11011000
          -2 callsubr
          -14 callgsubr
          -165 161 -280 -261 -174 -133.02 -186.99 167 callsubr
          endchar
        </CharString>
        <CharString name="T">
          117 0 43 1255.98 -34 callgsubr
          515.99 192 vstem
          1175 -8 callgsubr
          -467 hlineto
          -658 -157 466 -1298.98 192 1298.98 467 hlineto
          endchar
        </CharString>
        <CharString name="T.smcp">
          -42 0 43 970.98 172 callgsubr
          436.98 -89 callsubr
          1020.99 18 callsubr
          -398 hlineto
          -582 -151 396 -1013.99 186 1013.99 398 hlineto
          endchar
        </CharString>
        <CharString name="Thorn">
          105 0 43 141 callsubr
          -103 callgsubr
          548.99998 -32 callsubr
          252.03 -86 callgsubr
          21 callgsubr
          187 577.98 7 callsubr
          629.99 1163 rmoveto
          -277 -58 callgsubr
          -187 -79 callsubr
          187 314 277 hlineto
          315 173 180 244 245 -173 180 -315 hvcurveto
          -699 vmoveto
          -277 548.99 277 hlineto
          214 87 141 callgsubr
          -140 -136 -87 -18 callsubr
          -214 hvcurveto
          endchar
        </CharString>
        <CharString name="Thorn.smcp">
          -88 0 43 192.99 152 422.98999 152 -19 callgsubr
          439.98999 7 callsubr
          506 962.99 rmoveto
          -181 101 callgsubr
          -22 callgsubr
          187 235.99 181 hlineto
          285.98 160 136 223.99 213 -160 154 -285.98 hvcurveto
          -575 vmoveto
          -181 423 181 hlineto
          13 callsubr
          76 -103 -114.01 -120 -76 -86 -182.99 hvcurveto
          endchar
        </CharString>
        <CharString name="U">
          -42 callgsubr
          -15 callsubr
          1194.99 1455.98 -102 callsubr
        </CharString>
        <CharString name="U.smcp">
          43 -72 callgsubr
          hstem
          116 -91 callsubr
          547 7 callsubr
          1035 1164.98 -98 callgsubr
        </CharString>
        <CharString name="Uacute">
          -42 callgsubr
          98 293 -15 callsubr
          768 1846.99 rmoveto
          -194 -293 67 callgsubr
          293 rlineto
          202 -391 -102 callsubr
        </CharString>
        <CharString name="Uacute.smcp">
          46 callsubr
          675.98 1565.98 rmoveto
          100 callgsubr
          114 callsubr
          134 -401 -98 callgsubr
        </CharString>
        <CharString name="Ucircumflex">
          -42 callgsubr
          108.01001 75 callsubr
          -15 callsubr
          971 1573.99 rmoveto
          -248.02 24 callsubr
          149 169.99 150 -169.99 rlineto
          154 hlineto
          223.99 -108.02 -102 callsubr
        </CharString>
        <CharString name="Ucircumflex.smcp">
          43 -72 callgsubr
          1149.00002 75 callsubr
          hstem
          116 -91 callsubr
          547 7 callsubr
          878.98 1292.98 rmoveto
          -248 24 callsubr
          149.02 170 183 callgsubr
          -71 callgsubr
          hlineto
          32 callgsubr
          -118.01 -98 callgsubr
        </CharString>
        <CharString name="Udieresis">
          -42 callgsubr
          121 210 -208 210 hstemhm
          1 callsubr
          192 12 61 callsubr
          5.02 -77 callsubr
          hintmask 00000000
          hintmask 11010101
          453.98 1788.99 rmoveto
          131 callgsubr
          72 38 46 58 59 -38 47 -72 hvcurveto
          hintmask 11101010
          430.02 -2 rmoveto
          128 callgsubr
          -76 callgsubr
          38.99 -20 callsubr
          73 callgsubr
          135 callsubr
          hintmask 11011001
          310.99 -331 -102 callsubr
        </CharString>
        <CharString name="Udieresis.smcp">
          43 -72 callgsubr
          1163.99 210 hstemhm
          116 -91 callsubr
          -48 -69 callgsubr
          22 callsubr
          155 callgsubr
          hintmask 11011000
          362.99 1507.98 rmoveto
          -53 callsubr
          -35 callgsubr
          -84 callgsubr
          -36 callsubr
          hvcurveto
          430 -1.99 115 callgsubr
          28 callgsubr
          hvcurveto
          hintmask 10100100
          242 -341.02 -98 callgsubr
        </CharString>
        <CharString name="Ugrave">
          -42 callgsubr
          98 293 -15 callsubr
          756 1553.98 rmoveto
          -193 293 -26 callsubr
          -293 rlineto
          599 -98 -102 callsubr
        </CharString>
        <CharString name="Ugrave.smcp">
          46 callsubr
          664.99 68 callsubr
          530 -108.02 -98 callgsubr
        </CharString>
        <CharString name="V">
          200 -66 callgsubr
          29 1248.99 vstem
          1066.99 -8 callgsubr
          -415 -1199.98 -412 1199.98 rlineto
          -210.99 hlineto
          537.99 54 callgsubr
          22 hlineto
          150 hlineto
          539.02 66 callsubr
          endchar
        </CharString>
        <CharString name="V.smcp">
          24 0 43 -43 196.99 hstemhm
          85 callgsubr
          1089 hintmask 10100000
          908.98 18 callsubr
          hintmask 01100000
          -319 -875.99 -25 -92 -27 93.98 -316.99 874 rlineto
          -201 hlineto
          457.01 53 callsubr
          -88 callsubr
          hlineto
          143 hlineto
          457.01 65 callsubr
          endchar
        </CharString>
        <CharString name="W">
          712 -66 callgsubr
          -38 callgsubr
          1712 vstem
          1577.98 -8 callgsubr
          -223.99 -996.99 -31 -195 -40 175 -280 1017 rlineto
          -8 callsubr
          hlineto
          -142 hlineto
          -287.99 -1017 -40 -171 -28.02 190 -228.99 997.99 rlineto
          -194 hlineto
          352.01 54 callgsubr
          35.99 hlineto
          141 hlineto
          310 1062.99 23 109 22 -109 299.01 -1062.99 rlineto
          -44 callgsubr
          hlineto
          139 hlineto
          352.01 66 callsubr
          endchar
        </CharString>
        <CharString name="W.smcp">
          452 0 43 -43 216.99 -216.99 217.99 hstemhm
          43 callgsubr
          1472 hintmask 10010000
          1335.99 18 callsubr
          hintmask 01010000
          -197 -868 -12 -80 -13 58 -243 890 rlineto
          -37 hlineto
          119 callsubr
          hlineto
          hintmask 00110000
          -247 -886.99 -14.01 -60 -11 77 -198 869.99 rlineto
          -185 hlineto
          297 53 callsubr
          48 hlineto
          127 hlineto
          267 918 rlineto
          2.99 vlineto
          1 -2.99 260 -918 rlineto
          46 hlineto
          128 hlineto
          298 65 callsubr
          endchar
        </CharString>
        <CharString name="X">
          180 -66 callgsubr
          57.99 1172.99 vstem
          645 896.98 rmoveto
          -349 559 rlineto
          -228 hlineto
          461 -721 -471 -734.99 rlineto
          140 callgsubr
          hlineto
          359.02 570 356.99 -570 rlineto
          229 hlineto
          -470 734.99 459 721 rlineto
          -227 hlineto
          endchar
        </CharString>
        <CharString name="X.smcp">
          4 0 43 hstem
          38.99 1036 vstem
          552 728.99 rmoveto
          -284.02 436 rlineto
          -221 hlineto
          397 -577 -405 -587.98 rlineto
          221 hlineto
          295 443.99 297 -443.99 rlineto
          223 hlineto
          -409.01 587.98 394 577 rlineto
          -222 hlineto
          endchar
        </CharString>
        <CharString name="Y">
          125 -66 callgsubr
          515.99 -77 callsubr
          vstem
          613.99 723.99 23 callsubr
        </CharString>
        <CharString name="Y.smcp">
          -38 0 43 hstem
          436.98 -89 callsubr
          1053 18 callsubr
          -210 hlineto
          -310 -575 -310 575 rlineto
          -209 hlineto
          423 -746 rlineto
          -418.98 186 407.98 vlineto
          endchar
        </CharString>
        <CharString name="Yacute">
          125 -11 callgsubr
          97.01001 -9 callsubr
          515.99 -77 callsubr
          vstem
          718.99 1845.99 rmoveto
          -194 116 callsubr
          -329.99 -1122 23 callsubr
        </CharString>
        <CharString name="Yacute.smcp">
          -38 0 43 1229.99 -9 callsubr
          436.98 -89 callsubr
          858.99 50 callgsubr
          150 hlineto
          463.01 -108.02 rmoveto
          -210 hlineto
          -310 -575 -310 575 rlineto
          -209 hlineto
          423 -746 rlineto
          -418.98 186 407.98 vlineto
          endchar
        </CharString>
        <CharString name="Z">
          122 115 callsubr
          87 1059 vstem
          314 156 rmoveto
          799.99 1160.99 rlineto
          139 -82 vlineto
          -933.01 -157 786 hlineto
          -797.99 -1155.99 rlineto
          31 callsubr
          -40 callsubr
          vlineto
          986.01 156 hlineto
          endchar
        </CharString>
        <CharString name="Z.smcp">
          -46 0 -103 callgsubr
          863.98999 172 callgsubr
          -76 callgsubr
          921 vstem
          92 callsubr
          150 rmoveto
          665.01 896 rlineto
          -33 callgsubr
          -75 vlineto
          -814 -151 657 hlineto
          -665 -891 rlineto
          -122.98 63 vlineto
          858.01 150 hlineto
          endchar
        </CharString>
        <CharString name="a">
          -93 callgsubr
          -35 callsubr
          459 187 hintmask 10111010
          965 235.99 -56 callgsubr
          hintmask 10110110
          -69 callsubr
          hintmask 10111010
          -89 callgsubr
          hintmask 01111010
          -93 callsubr
          hintmask 10111010
          -100 callsubr
        </CharString>
        <CharString name="aacute">
          -93 callgsubr
          81 callsubr
          -35 callsubr
          459 187 hintmask 10111101
          907.98 60 callsubr
          -50 callgsubr
          hlineto
          326 -1007 -104 callgsubr
        </CharString>
        <CharString name="acircumflex">
          -93 callgsubr
          150.99998 33 callgsubr
          -35 callsubr
          459 187 hintmask 10111101
          581 1422.99 rmoveto
          183 callgsubr
          -71 callgsubr
          10 hlineto
          55 callgsubr
          533.02 -1017 -104 callgsubr
        </CharString>
        <CharString name="acute">
          -461 95 callsubr
          293 hstem
          95 callgsubr
          419 vstem
          316.98 1536 rmoveto
          -194 17 callsubr
          -50 callgsubr
          hlineto
          268.98 136 callgsubr
          endchar
        </CharString>
        <CharString name="acutecomb">
          -1105 95 callsubr
          293 hstem
          -659 419 vstem
          -465 1536 rmoveto
          -194 49 callsubr
          endchar
        </CharString>
        <CharString name="adieresis">
          -93 callgsubr
          164.01 210 -35 callsubr
          -60 -69 callgsubr
          -131.99 187 hintmask 0000000000000000
          hintmask 1011100110000000
          368.99 -24 callgsubr
          28 callgsubr
          -26 callgsubr
          hvcurveto
          hintmask 1011101001000000
          166 -1030 -90 callsubr
          -262 -168 -165 -155 vhcurveto
          -85 callsubr
          hintmask 1011110001000000
          -89 callgsubr
          hintmask 0111110001000000
          -93 callsubr
          hintmask 1011101001000000
          -73 callgsubr
          hintmask 1011110001000000
          -104 callsubr
        </CharString>
        <CharString name="ae">
          625 -8 callsubr
          150.98 366.99 137.99 -135.98 141 312 19 callgsubr
          11 callsubr
          187 -159.01001 -99 callsubr
          456.02 -99 callsubr
          539.99998 187 hintmask 10111011
          1660.99 616 rmoveto
          298.98 -154.99 187 -288.01 vhcurveto
          -138 1 -121 -62 -83 -104.02 rrcurveto
          110.02 -65 -122 54.99 -153 hhcurveto
          hintmask 11010111
          -256 -174 141 callgsubr
          -187 hvcurveto
          186 -18 rlineto
          103 165 callsubr
          89 -101 callsubr
          137 75 -89 -143 vhcurveto
          -85.01 -221 vlineto
          hintmask 11011011
          -294.01 -155 -121 -210 -197 127 -127.98 228 224 140.99 91.97 88 75 callgsubr
          hvcurveto
          -112 85 134 -67.97 179 hhcurveto
          214.02 122 86.98 36 -74 callgsubr
          hvcurveto
          -65 135 rlineto
          147 callsubr
          118 callsubr
          -13 callsubr
          -62.02 -158 hhcurveto
          hintmask 10111011
          -222.99 -100 163 206 -6 hvcurveto
          727 hlineto
          -187 141 rmoveto
          -536 hlineto
          12 callsubr
          22.02 98 134 -65 callsubr
          hhcurveto
          187 69 -129 -152 hvcurveto
          -1003.99 -542 rmoveto
          -140 -65 75 -18 callgsubr
          hvcurveto
          hintmask 11011011
          104 -44 callsubr
          93 174.02 vhcurveto
          219 -240 hlineto
          hintmask 10111011
          -64.98 -61 -116 -63.02 4 callsubr
          hhcurveto
          endchar
        </CharString>
        <CharString name="agrave">
          -93 callgsubr
          81 callsubr
          -35 callsubr
          459 187 hintmask 10111101
          670.99 57 callsubr
          454 -1007 -104 callgsubr
        </CharString>
        <CharString name="alpha">
          53 -8 callsubr
          149.98 823.00002 -103 callgsubr
          hstem
          149 callgsubr
          187 533.01001 -66 callsubr
          vstem
          1120.99 -101 callsubr
          rmoveto
          -2 140 callsubr
          -12 -2.99 -12.99 hhcurveto
          -43 -37 28 123 hvcurveto
          787 -157.99 vlineto
          -17 -139.02 rlineto
          102.01 -68.02 4 callsubr
          57 -140 98 callgsubr
          152 callsubr
          12 callgsubr
          121 callgsubr
          166 callgsubr
          105 69 vhcurveto
          -116 27 65 -47.98 92 hhcurveto
          43 39 5 28.97 42 hvcurveto
          -577 116 rmoveto
          59 callsubr
          1 callgsubr
          78 -80 34 callgsubr
          48 vhcurveto
          -449.99 vlineto
          -107 -48 -76 100 callsubr
          -129 hhcurveto
          endchar
        </CharString>
        <CharString name="alpha.alt">
          115 -8 callsubr
          149.98 -128.98999 43 908.99 19 callgsubr
          149 callgsubr
          155 callgsubr
          hintmask 01110000
          1113.99 hmoveto
          -113 540 106 542 rlineto
          161 callsubr
          hlineto
          -34 -233 rlineto
          -65 callsubr
          -68.02 -119.99 93 -184 98 callgsubr
          hintmask 10110000
          152 callsubr
          188 122 -53 callgsubr
          163.99 -43 callsubr
          vhcurveto
          hintmask 01110000
          38 -238.98 rlineto
          -87 29 callgsubr
          rmoveto
          hintmask 10110000
          -204 -38 -75 -188 -169 hhcurveto
          59 callsubr
          170.99 80.02 -197 -197 29 vhcurveto
          endchar
        </CharString>
        <CharString name="ampersand">
          169 -20 -103 callgsubr
          119 callsubr
          43 -43 249.99 1076 19 callgsubr
          100.99 187 -68 187 351.98999 142 callgsubr
          83.01 192 callgsubr
          hintmask 00000000
          hintmask 01011011
          1268 hmoveto
          hintmask 00110111
          -208.02 250 rlineto
          84.01 114 39 12 callgsubr
          165 vvcurveto
          -168 hlineto
          -110 -25 -97 84 callgsubr
          -81 vhcurveto
          -323.01 386.99 109 81 rlineto
          117 87 81 -7 callsubr
          140 vvcurveto
          164.99 -133 142 -214 -220 -145 -126.01 -227 -115 65 -99 99 -119.99 vhcurveto
          hintmask 10011011
          -166.02 -117 -117 -107 -174 vvcurveto
          -239.99 181 -171 291 132 143 120 callgsubr
          -7 callsubr
          100 vhcurveto
          hintmask 01010111
          -53 callgsubr
          -115 rlineto
          -460 1326 rmoveto
          112 63 100 callsubr
          30 callgsubr
          -100 -47 -49 83 callgsubr
          -57 hvcurveto
          -103.02 -74 rlineto
          -71 2 callgsubr
          -46.99 78 73 vvcurveto
          106 73 callsubr
          91.02 117 vhcurveto
          hintmask 10011011
          -11 -1196.01 rmoveto
          -193 -92 162 callsubr
          3 callgsubr
          106 callgsubr
          13 -53 callgsubr
          144 -28 callsubr
          hvcurveto
          41 31 356 -426 rlineto
          -53 callsubr
          -78 186 callgsubr
          -41 -96.01 hhcurveto
          endchar
        </CharString>
        <CharString name="ampersand.smcp">
          133 -23 callsubr
          -137 43 -43 211.99 816 153 hstemhm
          102.99 -91 callsubr
          -95.98001 181.99 265 13 callsubr
          105.99998 170 hintmask 00000000
          hintmask 01011011
          1169.98 hmoveto
          hintmask 00110111
          -198.99 211.99 rlineto
          82 -28 callsubr
          45 134 146 vvcurveto
          -170 hlineto
          -104.02 -23 -92 -44 -75 vhcurveto
          -268 285 86 61 rlineto
          80 58 63 87 100.99 vvcurveto
          139 -122 122.02 -191 -189.99 -127 -106 -156 -118 -76 callgsubr
          -74 -18 callgsubr
          -100 vhcurveto
          hintmask 10011011
          -53 callsubr
          -51 rlineto
          -115 -52 callgsubr
          -70 100 callsubr
          -18 callsubr
          vvcurveto
          -166.02 -50 callsubr
          -127.97 237.02 -71 callgsubr
          184 callgsubr
          41.98 -84 callgsubr
          82 callsubr
          vhcurveto
          hintmask 01010111
          93 -98 rlineto
          -584 905.99 rmoveto
          59 44 63 103 callsubr
          87 50.02 -53 -69 -49 -28.02 -50 22 callsubr
          -40 vhcurveto
          -64 -46 rlineto
          -65 -43 callsubr
          -52 53 65 vvcurveto
          hintmask 10011011
          131 -769 rmoveto
          -146 -71 69 97 44 13 101 callsubr
          11 callsubr
          123 callsubr
          hvcurveto
          84.01 73 callsubr
          293 -307 rlineto
          -48 29 callsubr
          83 callgsubr
          -26.99 -100 hhcurveto
          endchar
        </CharString>
        <CharString name="aring">
          -93 callgsubr
          114.01999 87.98 234 89 -35 callsubr
          47 149 callgsubr
          232.02 99 -19 187 hintmask 1011111010100000
          581.98 1216 rmoveto
          hintmask 1011111011000000
          105 callgsubr
          94 87 116 116 153 callsubr
          -116 hvcurveto
          hintmask 1011111010100000
          -116 93 -87 122.99 vhcurveto
          hintmask 1011111011000000
          321.98 vmoveto
          68.01 48 -56 -63 -60 196 callsubr
          59 63 48 56 68 hvcurveto
          hintmask 1011110110100000
          383.02 -1302 -90 callsubr
          -262 -168 -165 -155 vhcurveto
          -85 callsubr
          hintmask 1011111010100000
          -89 callgsubr
          hintmask 0111111010100000
          -93 callsubr
          hintmask 1011110110100000
          -73 callgsubr
          hintmask 1011111010100000
          -104 callsubr
        </CharString>
        <CharString name="asciicircum">
          -249 1415.01999 -86 callgsubr
          64 724.99 vstem
          788.99 728.99 rmoveto
          -298 727 rlineto
          -16 hlineto
          -112 hlineto
          -298.98 -727 rlineto
          142 callgsubr
          hlineto
          190 484 189 -484 rlineto
          endchar
        </CharString>
        <CharString name="asciitilde">
          288 402.98 161 77 161 hstem
          -45 callgsubr
          161.99 817.01 -59 callsubr
          vstem
          1262.98 776.99 rmoveto
          -152.99 hlineto
          -45 callsubr
          -69 -87.99 -17 callsubr
          -65 138 callgsubr
          33 66 -71 vhcurveto
          87.99 -99 -83 187 callgsubr
          -117 hhcurveto
          -190 -133 -157 -208.02 hvcurveto
          162 1 rlineto
          126.01 59 104 callsubr
          102 66 53 -35.99 -63.02 68 vhcurveto
          22 callgsubr
          121 callgsubr
          11 callsubr
          -48 117 hhcurveto
          190 134 170 204 hvcurveto
          endchar
        </CharString>
        <CharString name="asterisk">
          -223 1416.01999 -86 callgsubr
          371.48 144.51 vstem
          328.99 983.98 rmoveto
          -200 -275.99 184 callgsubr
          -91.01 180 282.01 146 callgsubr
          -289 126 93 -197 272 306.02 31 callgsubr
          -47 152 -296 -111 10 350 rlineto
          -154 hlineto
          143 callgsubr
          -345 -301 112 -47 -94 callsubr
          rlineto
          endchar
        </CharString>
        <CharString name="at">
          733 -452.99 124 308 -33 callgsubr
          -27 callgsubr
          12 callgsubr
          739.98 128 310 131 hstemhm
          115 146 288.99 -65 callsubr
          895.01 83 callsubr
          hintmask 11011111
          967.99 1431 rmoveto
          -502 -326.98 -405.01 -548 -24 hvcurveto
          -573.99 -23 -58 callgsubr
          -356.99 507 hhcurveto
          -7 callgsubr
          -63 callgsubr
          29 60 93 hvcurveto
          -78 callgsubr
          143 callsubr
          rlineto
          -48 -83 -130 -29.99 -46 callsubr
          hhcurveto
          -425 -233 308 498.97 23 hvcurveto
          489 84 callsubr
          263 333 419 hhcurveto
          464 200 -299 -498 -23 hvcurveto
          163 callsubr
          140 callsubr
          -88 -180 -160.99 hhcurveto
          -65 30 callgsubr
          35.99 195 17 hvcurveto
          51 554 rlineto
          58 -75 -69 43 callgsubr
          -145 hhcurveto
          -205 -196 -221 -350.99 -31 hvcurveto
          -263 -24 -18 callgsubr
          -175.98 197 hhcurveto
          98 98 57.98 111 71 hvcurveto
          -106 33 82 -62.97 -7 callgsubr
          hhcurveto
          290 109 277.97 246 10 hvcurveto
          568 23 -276.99 360.02 -513 hhcurveto
          hintmask 10111111
          -103 -1309 rmoveto
          -117 -56 103 callgsubr
          189 17.99 hvcurveto
          -58 callgsubr
          26 117 151 145 hhcurveto
          47 40 -12 -17 33 hvcurveto
          -46 -503.99 rlineto
          -3 -1 -2.99 -2 vvcurveto
          31 callsubr
          -52 -33 callsubr
          -56 -69 hhcurveto
          endchar
        </CharString>
        <CharString name="atilde">
          -93 callgsubr
          160.99998 140 -45 141 -35 callsubr
          -90 125 424 187 -153 1 callgsubr
          hintmask 0000000000000000
          hintmask 1011010011000000
          453 1357.99 rmoveto
          111 21 -95 136 hhcurveto
          hintmask 1011101000100000
          121 28 callsubr
          95 146 hvcurveto
          96 callgsubr
          12 rlineto
          -64 -83 callsubr
          -49 122 callsubr
          vhcurveto
          -106 -17 callgsubr
          -18 callgsubr
          -113 hhcurveto
          hintmask 1011010011000000
          40 callgsubr
          hintmask 1011100101000000
          512 -1122 -90 callsubr
          -262 -168 -165 -155 vhcurveto
          -85 callsubr
          hintmask 1011101001000000
          -89 callgsubr
          hintmask 0111101001000000
          -93 callsubr
          hintmask 1011100101000000
          -73 callgsubr
          hintmask 1011101001000000
          -104 callsubr
        </CharString>
        <CharString name="b">
          45 -41 callsubr
          1 callsubr
          187 543.01001 187 -4 callgsubr
          171 vlineto
          hintmask 10111000
          9.02 95 callgsubr
          rlineto
          -92 -76 callgsubr
          104 -50.99 141 hhcurveto
          268 152 52 callgsubr
          -151 222 -271.01 vhcurveto
          235 110 callgsubr
          -81 -177 60 callgsubr
          209.02 73 197 callgsubr
        </CharString>
        <CharString name="b.ss06">
          45 -41 callsubr
          1 callsubr
          187 563.01001 -66 callsubr
          -4 callgsubr
          161 vlineto
          hintmask 10111000
          16 128 rlineto
          -95.01 -84 callgsubr
          104 -53 144 hhcurveto
          268 171.99 234 315.98 hvcurveto
          124 callsubr
          vlineto
          330 -170.99 221 -271.01 vhcurveto
          255.02 -572 rmoveto
          -215.99 -101 -178 60 callgsubr
          201 101 -173.02 -222.99 hvcurveto
          endchar
        </CharString>
        <CharString name="backslash">
          -264 1415.01999 -86 callgsubr
          40.98 785.02 vstem
          40.98 -8 callgsubr
          608.01 -1580.99 rlineto
          177 hlineto
          -608.01 1580.99 rlineto
          endchar
        </CharString>
        <CharString name="bar">
          -604 1415.01999 -86 callgsubr
          175.98 -103 callgsubr
          vstem
          325.98 -270 rmoveto
          1725.99 -150 -1725.99 vlineto
          endchar
        </CharString>
        <CharString name="braceleft">
          157 callgsubr
          275.98 7 callsubr
          462.99 98 rmoveto
          206.99 vlineto
          133 -51 115 -117 62 vhcurveto
          117 62 51 115 133.02 vvcurveto
          207 vlineto
          164 187 callsubr
          137 158 51 vhcurveto
          -39 113 rlineto
          -272 -77 -52 callgsubr
          161 callsubr
          -210 vvcurveto
          -207 vlineto
          -145.02 146 callsubr
          -93 -150 vhcurveto
          -23 vlineto
          -121 vlineto
          150 139 callgsubr
          -94 -144 hvcurveto
          -206.99 vlineto
          -210 84.01 161 callsubr
          272 -77 vhcurveto
          39 114 rlineto
          -158 50 138 callgsubr
          -28 callgsubr
          164 vvcurveto
          endchar
        </CharString>
        <CharString name="braceright">
          157 callgsubr
          227.98 7 callsubr
          414.99 925 rmoveto
          207 vlineto
          210 -83 12 callsubr
          -273 77 vhcurveto
          -39 -113 rlineto
          158 -51 187 callsubr
          -137 -164 vvcurveto
          -207 vlineto
          -139.02 123 callsubr
          -114 128 -57 vhcurveto
          -128 -57 122 callsubr
          -114.01 -139 vvcurveto
          -206.99 vlineto
          -164 138 callgsubr
          141 callgsubr
          -158 -50 vhcurveto
          39 -114 rlineto
          273 77 83 12 callsubr
          210 vvcurveto
          206.99 vlineto
          144 63 94 149.02 vhcurveto
          32 vlineto
          123 callgsubr
          vlineto
          -149.02 -63 93 145.02 hvcurveto
          endchar
        </CharString>
        <CharString name="bracketleft">
          79 callgsubr
          162 callgsubr
          7 callsubr
          523.98 1513.98 113 callgsubr
          -378 -1975.99 378 150 -191 1675.98 vlineto
          endchar
        </CharString>
        <CharString name="bracketright">
          79 callgsubr
          101 callgsubr
          7 callsubr
          99 callgsubr
          1664 rmoveto
          148 callsubr
          192 -1675.98 -192 -150 379 1975.99 vlineto
          endchar
        </CharString>
        <CharString name="brokenbar">
          -612 1415.01999 -86 callgsubr
          -52 callsubr
          7 callsubr
          333.99 698 rmoveto
          757.99 -187 -757.99 vlineto
          -968 vmoveto
          187 791 -187 hlineto
          endchar
        </CharString>
        <CharString name="bullet">
          -414 535.98 434.01 hstem
          125 callsubr
          407.98 vstem
          139 771.99 rmoveto
          -40 vlineto
          -115.02 11 callsubr
          -81 126.01 127 76.98 81 115.02 vhcurveto
          40 vlineto
          115 -76.98 83 -128 -45 callsubr
          5 callgsubr
          -83 -115 vhcurveto
          endchar
        </CharString>
        <CharString name="c">
          -32 -9 callgsubr
          92 7 callsubr
          828.99 342 rmoveto
          -123 -11 -112 -89 -132 hhcurveto
          -55 callgsubr
          -291 156 -248.99 326 229.99 191 169 193 11.02 vhcurveto
          endchar
        </CharString>
        <CharString name="c.ss06">
          -30 -9 callgsubr
          93 186.98 vstem
          831 342 rmoveto
          -123 -11 -112 -89 -131 hhcurveto
          137 callsubr
          29 callsubr
          199 191 hvcurveto
          42 vlineto
          188.99 69.02 201 227 -50 callsubr
          97 34 callgsubr
          -134 10.02 vhcurveto
          188 callsubr
          hlineto
          223 -9.99 -168 169 -253.99 hhcurveto
          -325.02 -157.99 -249 -291 hvcurveto
          -42 vlineto
          -291 157 -248.99 326.98 229 192 169 193 99 callgsubr
          vhcurveto
          endchar
        </CharString>
        <CharString name="ccedilla">
          -32 -445 106 194.01 274.98 -148.98999 43 -43 -101 callsubr
          -140.99 43 919.99 19 callgsubr
          92 187 321.98 -14 callsubr
          hintmask 00000000
          hintmask 10010111
          573.99 83 callsubr
          rmoveto
          -55 callgsubr
          hintmask 10001111
          -258 123 -225 256 -47.98 vhcurveto
          hintmask 11000111
          -31 -134 rlineto
          112 140 callsubr
          43 callgsubr
          -17.99 -68.02 vvcurveto
          -70 -74 -29 -92 vhcurveto
          7 -106 rlineto
          198.99 105 84 -7 callgsubr
          hvcurveto
          hintmask 10100111
          116 -76 -74 callgsubr
          190 callsubr
          13 vhcurveto
          10 -74 callgsubr
          216 13 188 callsubr
          163 10.02 185 rlinecurve
          -177 hlineto
          hintmask 10010111
          -123 -11 -112 -89 -132 hhcurveto
          endchar
        </CharString>
        <CharString name="cedilla">
          -597 -434.99 106 275.99 53 hstem
          281.98 -14 callsubr
          vstem
          285.98 hmoveto
          -134 hlineto
          -32 callgsubr
          -135 rlineto
          123 callgsubr
          -8.99 49 -18 -68 vvcurveto
          -70 -74 -29 -92 vhcurveto
          6.99 -106 rlineto
          199 105 103 callsubr
          -7 callgsubr
          116 -76 -74 callgsubr
          -77 13 hvcurveto
          endchar
        </CharString>
        <CharString name="cent">
          16 -245 374.98 -141.98 43 84 callgsubr
          140.98 822.00002 365.99 hstemhm
          161 callgsubr
          187 191 155 callgsubr
          hintmask 00111100
          587 83 callsubr
          rmoveto
          -230 -65 199 191 hvcurveto
          42 vlineto
          188.99 75 callgsubr
          201 228 -50 callsubr
          -18 callgsubr
          34 callgsubr
          -134 10 vhcurveto
          177 hlineto
          140 callsubr
          197.02 -133 156 -206 33 rrcurveto
          222 -187 -225 vlineto
          -255 -48 -123 -225 -258 vvcurveto
          -42 vlineto
          -258 122 -226 256 -46.98 vhcurveto
          hintmask 10011100
          -234 187 vlineto
          hintmask 01011100
          233 vlineto
          191.02 34 -50 callsubr
          151 143 callgsubr
          169 rrcurveto
          -177 hlineto
          hintmask 00111100
          -123 -10 -112 -89 -132 hhcurveto
          endchar
        </CharString>
        <CharString name="circumflex">
          -139 1252.98 33 callgsubr
          hstem
          181 callsubr
          606 vstem
          775.99 1262.98 rmoveto
          -248 273.02 rlineto
          -112 42 callgsubr
          -101 callsubr
          170 -50 callgsubr
          -170 rlineto
          -71 callgsubr
          hlineto
          endchar
        </CharString>
        <CharString name="colon">
          -607 93 callgsubr
          -80 callgsubr
          662.99 -80 callgsubr
          hstem
          133.98 231 vstem
          249 1091.99 rmoveto
          -76 -39 -48 -63 -61 39 96 callsubr
          76 76 40 102 callgsubr
          61 63 -40 48 -76 hvcurveto
          -883 vmoveto
          -3 callgsubr
          endchar
        </CharString>
        <CharString name="comma">
          -702 -289.99 508.98 hstem
          127 13 callsubr
          vstem
          309.98 70.98 rmoveto
          148 -182.99 -151 vlineto
          -108.99 -36 -89 -63 -88 vhcurveto
          105.99 -81 callgsubr
          rlineto
          112 131 callsubr
        </CharString>
        <CharString name="copyright">
          504 -8 callsubr
          -33 callgsubr
          -99 callsubr
          128 634 127 183.98999 119 hstem
          31 callgsubr
          116 234 -14 callsubr
          386.99998 146 275.01001 116 vstem
          800.99 49 callgsubr
          391 89 callgsubr
          -391 8 callgsubr
          318 500 rmoveto
          -146 hlineto
          -135 -64 -51 -121 -132 -70 105.99 153 vhcurveto
          116 vlineto
          151 70 108.02 132 121 65 -54 -131.99 vhcurveto
          146 hlineto
          209 -128 104 -204 -212.99 -134 -158 -229 vhcurveto
          -115 vlineto
          137 callsubr
          134 -157 212.99 204 127 104 210 vhcurveto
          endchar
        </CharString>
        <CharString name="crossbar">
          -185 651.98 -32 callsubr
          hstem
          12 callgsubr
          637.99 vstem
          780.98 62 callsubr
          -637.99 148 callsubr
          vlineto
          endchar
        </CharString>
        <CharString name="currency">
          355 -20 170 913.99 181 callsubr
          112 callsubr
          173.01 843.00002 173.99 vstem
          1329.99 607.99 rmoveto
          139 -41 126 -69 102.01 vhcurveto
          151 -71 callgsubr
          -133 136 -148 -151 rlineto
          76 -99 -123 -74 callgsubr
          -133 hhcurveto
          -132 -122 -83 callsubr
          -75 -98 hvcurveto
          -146 -101 callsubr
          -132 -135 148 -150 rlineto
          -71 -102.99 -42 -127 -141 vvcurveto
          -134 38 -123 66 4 callsubr
          vhcurveto
          -139.02 -141 132 -135 133 136 rlineto
          -82 101 127 -48 -28 callgsubr
          hhcurveto
          139 127 49 81.99 101 hvcurveto
          136 -137.97 133 135.98 -143 144 rlineto
          65 101.01 37 121 133 vvcurveto
          -595 -457.99 rmoveto
          -233 34 callsubr
          35 callgsubr
          252 252 188.99 204 233 233 188 -204 -252 -252 -188 163 callgsubr
          -233 hvcurveto
          endchar
        </CharString>
        <CharString name="d">
          51 -41 callsubr
          28 callsubr
          187 539.98999 187 hintmask 10111000
          821.99 178 callsubr
          -70 -99 45 119 callsubr
          hhcurveto
          -258 -170 16 callgsubr
          172 -233 254 136 100.99 48 87 71 vhcurveto
          hintmask 01111000
          9 -115 rlineto
          171 149 callsubr
          -200 -85 177 139 callsubr
          216 85 181 -19 callsubr
          127 -34 callsubr
          -65 -88 47 vhcurveto
          -501 vlineto
          -92 -48 190 callsubr
          -65 -130 hhcurveto
          endchar
        </CharString>
        <CharString name="d.ss06">
          67 -41 callsubr
          31 callgsubr
          187 560.98999 -99 callsubr
          hintmask 10111000
          838.98 178 callsubr
          -70.98 -99 45 -130 hhcurveto
          -258 -190 16 callgsubr
          192 -233 254 137.99 121 callgsubr
          187 callsubr
          89 71 vhcurveto
          hintmask 01111000
          148 callgsubr
          -27 callgsubr
          rlineto
          162 149 callsubr
          -198.98 -106 177 139 callsubr
          223 106 174 200.99 127 79.01 -65 -88 102 callgsubr
          vhcurveto
          -501 vlineto
          -92 -17 callgsubr
          -77 -65 -130 hhcurveto
          endchar
        </CharString>
        <CharString name="degree">
          -340 960.98 127.01 261.99 127.01 hstem
          -45 callgsubr
          125 256.01 1 callgsubr
          vstem
          385.99 1477 rmoveto
          -139 -116 -118 -142 31 callsubr
          116 21 callsubr
          139 138 113 94 callgsubr
          12 callgsubr
          142 -113 118 -138 hvcurveto
          -389 vmoveto
          -81 callgsubr
          -58 54.99 74 76 58 57 -76 callgsubr
          72 54 -57 -76 -74 -54 145 callsubr
          -72 hvcurveto
          endchar
        </CharString>
        <CharString name="dieresis">
          -249 1265.99 210 hstem
          149 callgsubr
          61 callsubr
          vstem
          185 callgsubr
          1477.98 rmoveto
          26 callgsubr
          72 156 callsubr
          46.99 -72 hvcurveto
          430.02 112 callgsubr
          -53 callsubr
          174 callgsubr
          -84 callgsubr
          -76 callgsubr
          39 46 58 59 -39 135 callsubr
          endchar
        </CharString>
        <CharString name="divide">
          65 142 callgsubr
          -80 callgsubr
          207.99998 183 205.01001 220.99 hstem
          460.98 231 vstem
          576 1210 rmoveto
          -76 30 callsubr
          -49 -63 -61 104 callgsubr
          96 callsubr
          76 75 41 102 callgsubr
          61 63 -41 49 -75 hvcurveto
          492.99 -609.01 rmoveto
          183 -998.01 -183 vlineto
          505.02 -208 rmoveto
          -76 30 callsubr
          -48 -63 -43 callgsubr
          104 callgsubr
          -48 76 75 41 48 -38 callgsubr
          63 -41 48 -75 hvcurveto
          endchar
        </CharString>
        <CharString name="dollar">
          46 -207.99 346.99 -157 43 -42 43 1290.98 375 -260.94 -97 callsubr
          -39.98001 -97 callsubr
          hstemhm
          110 -66 callsubr
          -130.98999 187 153.98999 149 -132 -86 callsubr
          168.02 -99 callsubr
          -173.99 -66 callsubr
          hintmask 0010010101010000
          1041.98 377 rmoveto
          235.99 -145.98 94 callgsubr
          -257 160 callsubr
          vhcurveto
          -219.02 32 callsubr
          118 callsubr
          72 128.99 vvcurveto
          hintmask 0011000101100000
          139 77 95 167 -65 callsubr
          86.02 -130 161 callsubr
          vhcurveto
          186 hlineto
          hintmask 0010100101100000
          272 -131 162 -223 29.03 vhcurveto
          hintmask 0011000101010000
          220 -151 vlineto
          hintmask 1000010101010000
          -219.02 vlineto
          -220 -25.99 -137.99 -145 -222 vvcurveto
          -236 -63 callgsubr
          -121 253 -77 vhcurveto
          206.99 -69 74 callgsubr
          182 callgsubr
          -119.01 vvcurveto
          -144 -17 callsubr
          -92 161 callsubr
          vhcurveto
          hintmask 1000011001010000
          -131 -147 63 227 hvcurveto
          -186.99 hlineto
          hintmask 0100011010010000
          -304 192 -121 204.99 -21.99 vhcurveto
          hintmask 1000010110010000
          -189.99 149 vlineto
          hintmask 0010010110010000
          191 vlineto
          hintmask 0010010101010000
          236 24.98 150 138 231.02 vvcurveto
          endchar
        </CharString>
        <CharString name="dollar.smcp">
          -49 -236.99 369.99 -145 -14 callsubr
          897.98999 147 -147 364.01 167 callgsubr
          182 -103 callgsubr
          176.01 187.99 hintmask 01100111
          989.98 299.99 rmoveto
          191 -144 -28 callsubr
          -258.99 74 callsubr
          vhcurveto
          -2 callsubr
          173 -132 -50 callsubr
          -229 29 vhcurveto
          hintmask 01010111
          219.02 -150 vlineto
          hintmask 01100111
          -217 vlineto
          -224 -8 callsubr
          -145 -45 callsubr
          -170.99 vvcurveto
          167 callsubr
          87 callsubr
          hintmask 01101011
          145 callgsubr
          -133 -38 callgsubr
          155 hvcurveto
          -188 hlineto
          -221 198 -118.01 211 -21.99 vhcurveto
          hintmask 10100111
          163 callsubr
          150 vlineto
          hintmask 01100111
          224.99 vlineto
          222 84 callsubr
          3 callgsubr
          116 175 vvcurveto
          endchar
        </CharString>
        <CharString name="dotlessi">
          -597 0 43 hstem
          -95 callgsubr
          -89 callsubr
          342 hmoveto
          76 callsubr
        </CharString>
        <CharString name="e">
          -84 callsubr
          20 callgsubr
          1012 572.99 -106 callsubr
        </CharString>
        <CharString name="e.ss07">
          -84 callsubr
          hstem
          93 190.99 541 7 callsubr
          1012 610.97 rmoveto
          282.01 -135 209 -311 -243 -230 -197 -341 vhcurveto
          -44 vlineto
          -315 209.99 163 callsubr
          324.02 188 callsubr
          109.02 139 callgsubr
          53 58.99 vhcurveto
          -57 126.01 rlineto
          -49 -64 -93 -42 -122 hhcurveto
          -215 -128 159 200.99 -12 hvcurveto
          731.01 hlineto
          -187 -50 callgsubr
          rmoveto
          -541 hlineto
          199.99 22 110 112 150 hhcurveto
          189 70 -140 -146 hvcurveto
          endchar
        </CharString>
        <CharString name="eacute">
          -84 callsubr
          81 callsubr
          20 callgsubr
          890.98 60 callsubr
          -50 callgsubr
          hlineto
          390 -670 -106 callsubr
        </CharString>
        <CharString name="ecircumflex">
          -84 callsubr
          150.99998 33 callgsubr
          20 callgsubr
          564.98 1422.99 113 callgsubr
          -170 rlineto
          -71 callgsubr
          10 hlineto
          -248 273.02 rlineto
          -112 42 callgsubr
          596.01 -680 -106 callsubr
        </CharString>
        <CharString name="edieresis">
          -84 callsubr
          164.01 210 hstemhm
          111 callsubr
          -37.98999 -69 callgsubr
          -67.99 155 callgsubr
          hintmask 11110110
          351.99 -24 callgsubr
          -47 callsubr
          -72 113 callsubr
          58 callsubr
          72 hvcurveto
          hintmask 11111001
          230 -693 -106 callsubr
        </CharString>
        <CharString name="egrave">
          -84 callsubr
          81 callsubr
          20 callgsubr
          654.99 95 callsubr
          -41 callgsubr
          517.02 -670 -106 callsubr
        </CharString>
        <CharString name="eight">
          -100 callgsubr
        </CharString>
        <CharString name="eight.frac">
          180 callsubr
          223 129 205.01001 -82 callsubr
          1070 -60 callgsubr
          29 callsubr
          48 callgsubr
          75 callgsubr
          -29 callgsubr
          -61 146 callsubr
          -29 callsubr
          -41 -72.99 -74 -29 callsubr
          41 139 callgsubr
          63 -39 callgsubr
          104 callgsubr
          -40 callsubr
          hvcurveto
          hintmask 11110010
          1 -557.02 -31 callsubr
        </CharString>
        <CharString name="eight.smcp">
          -65 -72 callgsubr
          389.00002 -103 callgsubr
          356.99998 106 callsubr
          hstemhm
          82 callsubr
          187 -156.99 187.99 411 -99 callsubr
          -156.99 187 hintmask 11110010
          728.99 599.98 rmoveto
          hintmask 11101100
          113 187 callgsubr
          70 93 115 vvcurveto
          35 callgsubr
          -168 116.02 -226.02 -227 -163.98 -116.02 163 callgsubr
          -115 69 -93 112 -51.02 vhcurveto
          hintmask 11110010
          -129 -51 -82 125 callgsubr
          -130 vvcurveto
          -217 184 -115.97 239 236 186 115.97 217 130 -83 100.99 -130 52 vhcurveto
          hintmask 11101100
          -211 430 rmoveto
          123 85.02 -74 -104 -109 -83 -70 -123 96 callgsubr
          -80.02 70 109 110 80.02 68 122.99 hvcurveto
          hintmask 11110010
          2 -896 rmoveto
          -145 22 callgsubr
          72 121 117 31 callgsubr
          79.01 143 141 96.02 -79.01 -117 -121 -94 -72 -141 hvcurveto
          endchar
        </CharString>
        <CharString name="eight.sup">
          93 callgsubr
          127 222.97 129 205.01001 -82 callsubr
          406 rmoveto
          hintmask 11101100
          74 35 45 -38 callgsubr
          78 vvcurveto
          3 callgsubr
          -116.99 78 51 callsubr
          -78 107 callgsubr
          -78 -39 callgsubr
          -43 callgsubr
          74 -34 vhcurveto
          hintmask 11110010
          -33 callsubr
          -36 -54 -67.02 -88 vvcurveto
          -150 129 -76.98 168 168 128 76.98 150 88 -54 67.02 -37 callsubr
          -557 rmoveto
          -52 callgsubr
          -53.99 -13 callgsubr
          70 69 53.99 42 83 82 57 -42 -69 -70 -56 84 callgsubr
          -82 hvcurveto
          endchar
        </CharString>
        <CharString name="eight.tnum">
          -100 callgsubr
        </CharString>
        <CharString name="ellipsis">
          266 93 callgsubr
          -80 callgsubr
          hstem
          -50 callsubr
          230.99 206.01 231.99 183.99998 231 vstem
          120 callsubr
          209 rmoveto
          -3 callgsubr
          437 hmoveto
          157 callsubr
          41 46.98 61 63 -41 49 -76 hvcurveto
          416.01 hmoveto
          -3 callgsubr
          endchar
        </CharString>
        <CharString name="emdash">
          494 651.98 -32 callsubr
          hstem
          -14 callsubr
          1335.99 vstem
          1480.99 62 callsubr
          -1336 148 callsubr
          vlineto
          endchar
        </CharString>
        <CharString name="endash">
          239 651.98 -32 callsubr
          hstem
          161.99 1001.98 vstem
          1163.98 62 callsubr
          -1001.99 148 callsubr
          vlineto
          endchar
        </CharString>
        <CharString name="equal">
          19 399.99 158.99 255.99998 159 hstem
          151.98 834 vstem
          985.99 814.98 rmoveto
          159 -834 -159 vlineto
          834 -414.99 rmoveto
          158.99 -834 -158.99 vlineto
          endchar
        </CharString>
        <CharString name="eth">
          96 -20 -86 callsubr
          695.98999 172 callgsubr
          -6 callgsubr
          187 570 7 callsubr
          820 1303 rmoveto
          168 114 -73.02 99 34 callsubr
          -128 -116 92 -140 65 -158 36 rlinecurve
          -58 -159 97 callgsubr
          -30 108.02 147 callsubr
          94 -65 rlinecurve
          -193 119 callsubr
          74 -99 217 82 callgsubr
          88 -86 74 callsubr
          -110 35 -139 rlinecurve
          -43 callsubr
          -81 callgsubr
          -99 46 -112 hhcurveto
          -258 -190 -202 -308 -272 -77 callsubr
          -216 281 271 197.02 225.99 329.01 hvcurveto
          98 vlineto
          275.98 184 callsubr
          227 -157.99 167.02 vhcurveto
          63 -768 rmoveto
          -231.02 -106 -172.99 -171 -187.99 -105 171.99 165 220 111 139 -14 callgsubr
          139 87 -64.99 -70 38 vhcurveto
          1 -18 0 -19 -20.01 vvcurveto
          endchar
        </CharString>
        <CharString name="exclam">
          -576 93 callgsubr
          185 callgsubr
          1216.03 -97 callsubr
          hstemhm
          160.99 -80 callgsubr
          -207.00002 182 hintmask 11010000
          349 410.99 rmoveto
          148 callgsubr
          1044.99 rlineto
          -196 hlineto
          148 callgsubr
          -1044.99 rlineto
          hintmask 11100000
          89 -212 rmoveto
          -72 113 callsubr
          -58.99 -59 -6 callsubr
          147 callsubr
          72 -84 callgsubr
          38.99 120 callgsubr
          59 58.99 73 callgsubr
          77 callsubr
          hvcurveto
          endchar
        </CharString>
        <CharString name="exclamdown">
          -604 890.98 210 hstemhm
          125 callsubr
          -80 callgsubr
          -195.00002 182 hintmask 00000000
          hintmask 11000000
          250 890.98 116 callgsubr
          -72 -39 -46 -58 -59 39 -47 72 hvcurveto
          hintmask 10100000
          -79.01 -206.99 rmoveto
          11 callgsubr
          -1044.99 rlineto
          196 hlineto
          -14.01 1044.99 rlineto
          endchar
        </CharString>
        <CharString name="f">
          -393 -47 callgsubr
          vstem
          605 1399.99 rmoveto
          35 -6 callsubr
          -3 -5 28 hvcurveto
          10.02 149.02 rlineto
          10 -41 -44 6 -42 hhcurveto
          -221.99 -16 callsubr
          118 vhcurveto
          endchar
        </CharString>
        <CharString name="f_f">
          320 -47 callgsubr
          524.98999 7 callsubr
          230.99 1196.99 rmoveto
          -115 -170 -141 170 -940.99 187 940.99 229.99 141 -229.99 115 vlineto
          -76 callsubr
          1086 203 rmoveto
          35 37 -3 -5 28 hvcurveto
          99 callgsubr
          149.02 rlineto
          10 -41 -83 callsubr
          6 -42 hhcurveto
          -222 -135 105 callsubr
          -115 -169.99 -141 169.99 16 callsubr
          230 141 -230 154 callgsubr
          118 vhcurveto
          endchar
        </CharString>
        <CharString name="f_f_i">
          644 129 callgsubr
          -156.98999 -97 callgsubr
          hstemhm
          230.99 187 397.98999 187 398.01001 187 hintmask 11101110
          1227 1391.98 rmoveto
          28 callsubr
          83 -25.99 -24 60 hvcurveto
          -88 callsubr
          -71 callgsubr
          rlineto
          35 -98 -89 93 callsubr
          -97 hhcurveto
          -245 -152 -135 -245 hvcurveto
          186 callgsubr
          -158.99 vlineto
          -239 hlineto
          hintmask 11011110
          115 vlineto
          -76 callsubr
          -115 -170 -141 72 callsubr
          140 callgsubr
          vlineto
          72 callsubr
          221 141 -221 28 callsubr
          hlineto
          hintmask 11101110
          144 65 90 callsubr
        </CharString>
        <CharString name="f_f_l">
          644 -47 callgsubr
          397.98999 187 398.01001 7 callsubr
          1187.98 1556.99 rmoveto
          -235.99 -136 105 callsubr
          -115 -158 vlineto
          -239.99 115 hlineto
          -76 callsubr
          -115 -170 -141 72 callsubr
          140 callgsubr
          vlineto
          72 callsubr
          230 141 -230 115 hlineto
          -45 callgsubr
          69 -84 callgsubr
          130 51 75 callgsubr
          109 callsubr
          -144.02 -169 32 -87 hhcurveto
          endchar
        </CharString>
        <CharString name="f_l">
          59 -47 callgsubr
          397.98999 7 callsubr
          602.99 1556.99 rmoveto
          -237 -16 callsubr
          83 callsubr
          187 callgsubr
          -43 callsubr
          109 callsubr
          -144 -169 32 -87 hhcurveto
          endchar
        </CharString>
        <CharString name="fi">
          30 129 callgsubr
          hstem
          101 callgsubr
          187 397.98999 7 callsubr
          612.99 1391.98 rmoveto
          95 83 -25.99 -24 73 callsubr
          hvcurveto
          31.01 -71 callgsubr
          rlineto
          35 -97 -13 callsubr
          93 callsubr
          121 callsubr
          hhcurveto
          -246 -151 -135 -245 hvcurveto
          186 callgsubr
          -171 -141 171 16 callsubr
          220 141 -220 28 callsubr
          vlineto
          144 64.99 90 callsubr
        </CharString>
        <CharString name="five">
          46 -20 -103 callgsubr
          655.98999 165 336 169 hstem
          882.99 7 callsubr
          35 callgsubr
          730.99 rmoveto
          150 -38 rlineto
          58 66.01 47 35 124 hhcurveto
          190 callgsubr
          121 callgsubr
          -140.99 -183 -204 -100 -128 -174 -156 -99 87 166 -23 hvcurveto
          -177 hlineto
          -272.02 25.01 -14 callgsubr
          -130.99 236 hhcurveto
          310.99 -50 callgsubr
          205 279 297 -165 189.99 -268 -107 182 callgsubr
          -65 callgsubr
          -31 -52 hvcurveto
          42.99 398.99 rlineto
          589 169 -747.01 hlineto
          endchar
        </CharString>
        <CharString name="five.frac">
          180 callsubr
          284.01001 116 142.98999 130 72 callgsubr
          1052 rmoveto
          127 -31.01 rlineto
          21 29 30 22.02 52 callsubr
          -57.02 182 callgsubr
          -82 -39 -62 -60 callsubr
          184 callgsubr
          12 callgsubr
          162 -51 callsubr
        </CharString>
        <CharString name="five.smcp">
          -65 -72 callgsubr
          478.99 149 242.01001 160.99 hstem
          778.99 -66 callsubr
          vstem
          163.98 579.99 113 callgsubr
          -37 rlineto
          38 53.99 106 callgsubr
          -88 callsubr
          123 callgsubr
          hhcurveto
          161 94 -99 -18 callsubr
          -144.02 -77 -100 -155.02 119 callsubr
          -92 58.02 119.99 -17 hvcurveto
          -180 hlineto
          -216 18.98 188 -111.98 211.99 hhcurveto
          286 133 142 callgsubr
          215.99 241 -156 148 -243 -95 -74 -27.01 -21 -45 hvcurveto
          -6 callsubr
          290 rlineto
          523.02 160.99 -680.02 hlineto
          endchar
        </CharString>
        <CharString name="five.sup">
          93 callgsubr
          127 283.98001 116 142.98999 130 72 callgsubr
          387.99 rmoveto
          127 -31 rlineto
          124 callsubr
          29 30 22 52 callsubr
          -57 -83 -82 -39 -62 -96.01 5 callgsubr
          -53 3 callsubr
          69 -8.01 hvcurveto
          -156 hlineto
          -145 7.99 138.02 -81.98 149 hhcurveto
          201 93 -6 callgsubr
          12 callgsubr
          162 -51 callsubr
        </CharString>
        <CharString name="five.tnum">
          26 endchar
        </CharString>
        <CharString name="four">
          46 0 43 295.98 -103 callgsubr
          926.04999 -86 callgsubr
          715.98 7 callsubr
          1105 488.98 rmoveto
          -202.02 967 -47 hlineto
          -151.98 hlineto
          -651.02 -1008.99 rlineto
          -108.02 663 -338.98 187 338.98 -19 callsubr
          vlineto
          -841.01 150 rmoveto
          430 676 22 104 callgsubr
          rlineto
          -715.02 vlineto
          endchar
        </CharString>
        <CharString name="four.frac">
          833.98 130 callsubr
          962.99 130 callgsubr
          -377 -518 7 -101 rlineto
          373 -170 159 170 103 callgsubr
          hlineto
          -487 129 rmoveto
          35 callgsubr
          262 182 callsubr
          25 rlineto
          -287 vlineto
          endchar
        </CharString>
        <CharString name="four.smcp">
          -65 0 412.99 -150.01001 -32 callsubr
          hstemhm
          634.98 187 hintmask 01100000
          996.99 413 rmoveto
          -175 751.99 -51 hlineto
          -145 hlineto
          -578.01 -787.99 3.02 138 callsubr
          rlineto
          583.99 hlineto
          hintmask 10100000
          -262.98 187 vlineto
          hintmask 01100000
          120 callsubr
          175 vlineto
          -749 -50 callgsubr
          rmoveto
          361 461.99 124 callgsubr
          46 rlineto
          -507.99 vlineto
          endchar
        </CharString>
        <CharString name="four.sup">
          0 298.98 -129 129 hstemhm
          433.99 159 hintmask 10100000
          699.99 298.98 130 callgsubr
          hintmask 01100000
          -377 -518 7 119 callgsubr
          rlineto
          373 hlineto
          hintmask 10100000
          -169.98 159 vlineto
          hintmask 01100000
          181 callsubr
          103 callgsubr
          vlineto
          hintmask 10100000
          -487 129 rmoveto
          35 callgsubr
          262 182 callsubr
          93 callsubr
          rlineto
          -288.01 vlineto
          endchar
        </CharString>
        <CharString name="four.tnum">
          126 endchar
        </CharString>
        <CharString name="fraction">
          -174 110.98 1203.99 hstem
          73 callsubr
          816 vstem
          164.99 110.98 rmoveto
          711 1138.01 -105 74 callsubr
          -711 -1137.99 rlineto
          endchar
        </CharString>
        <CharString name="g">
          45 -3 callsubr
          -53 callgsubr
          187 541 7 callsubr
          840.99 1082 rmoveto
          -8.01 -119 rlineto
          90 -81 callgsubr
          119 callgsubr
          43 callgsubr
          -136 hhcurveto
          -263.99 -164 16 callgsubr
          166 -233 129 callsubr
          -93 vlineto
          34 callsubr
          -112 125 callgsubr
          -174 -98 -17 callsubr
          -6 callsubr
          110 -89.99 vhcurveto
          -97 -109 rlineto
          -141 97 192 -47 112 hhcurveto
          269.99 189 163 287 hvcurveto
          1059 127 callgsubr
          177 139 callsubr
          216 84.99 181 41 callgsubr
        </CharString>
        <CharString name="g.alt">
          -23 -438 -103 callgsubr
          334 -103 callgsubr
          168.01 -86 callsubr
          421.99998 145.01 -129.99998 19 callgsubr
          29.98 187 -124.98 187 -127.02 168.01 443.99 -99 callsubr
          -105.99 187 hintmask 0000000000000000
          hintmask 1111000101000000
          618.99 183 callsubr
          rmoveto
          -171.99 hlineto
          -71 22 callsubr
          85 callgsubr
          99 callsubr
          50 24.99 32.99 27.01 23 hvcurveto
          -12.99 46 51 -8 54 hhcurveto
          hintmask 1111001010000000
          254 173 163 -77 callsubr
          hvcurveto
          22.02 vlineto
          -40 callsubr
          -21 65 -39 54.99 vhcurveto
          151.99 hlineto
          2 callsubr
          145.02 rlineto
          -366 hlineto
          12.99 -47 -51 7 -55 hhcurveto
          -253 -175.99 -150 -208 hvcurveto
          -22.02 vlineto
          -27 callgsubr
          74 callsubr
          33 callsubr
          109.02 -65.99 vhcurveto
          hintmask 1111000110000000
          122 callsubr
          -41 -59 -62.02 -103 vvcurveto
          -52 124 callsubr
          -40 36 -29 vhcurveto
          hintmask 1111010001000000
          -96.01 -49 -83 -86.98 -128 vvcurveto
          -148 163 -129 301.02 342 -77 callsubr
          187 153 vhcurveto
          hintmask 1111000101000000
          101 callgsubr
          -152.99 92 -259.01 vhcurveto
          hintmask 1110101010000000
          -339.99 548 rmoveto
          123 callgsubr
          98 -18 callgsubr
          144 145 98 -96.01 -111.99 vhcurveto
          -22.02 vlineto
          -104 121 callsubr
          -102.99 -145 -147 -97 102.99 104 vhcurveto
          hintmask 1111010001000000
          215 -1009.99 rmoveto
          -190.02 -87 74 callgsubr
          2 callgsubr
          81.02 51 -43 callsubr
          65 29 hvcurveto
          -4.02 25.01 93 callsubr
          2 callsubr
          26.99 hhcurveto
          208 hlineto
          172 52.99 -53 -91 -52 callgsubr
          96 callgsubr
          -106 -225 hvcurveto
          endchar
        </CharString>
        <CharString name="g.ss06">
          60 -3 callsubr
          31 callgsubr
          187 559.98999 7 callsubr
          867.98 1082 rmoveto
          -16 -45 callsubr
          rlineto
          93 -71 -102.99 52 -140 hhcurveto
          -263 -183.99 16 callgsubr
          185 -233 260 164 callgsubr
          99 120 callgsubr
          82 70.99 vhcurveto
          -78 callgsubr
          vlineto
          163 callsubr
          -87 -121 -198 -104.98 138 callsubr
          35.99 56 -82 vhcurveto
          -56 -137 rlineto
          -81 callgsubr
          104 -101 callsubr
          -33.02 106 hhcurveto
          301 169 182 322.98 hvcurveto
          1004.01 vlineto
          -443 -946.01 rmoveto
          -198.99 -105 177 139 callsubr
          223 105 174 200.99 128 79.01 -66.01 -89 46.99 vhcurveto
          -496.99 vlineto
          -93 96 callsubr
          -77 -66 -131 hhcurveto
          endchar
        </CharString>
        <CharString name="g.ss07">
          45 -3 callsubr
          -53 callgsubr
          187 541 7 callsubr
          852.99 1082 rmoveto
          -15.01 -45 callsubr
          rlineto
          93 -81 callgsubr
          -103 52 -139.02 hhcurveto
          -263.99 -164 -223 -330 hvcurveto
          -21 vlineto
          -316 166 -231.99 129 callsubr
          -57 vlineto
          -211.99 -87 -115 -199 -92 -99 29 -74 callgsubr
          -73.01 vhcurveto
          -56 141 callgsubr
          rlineto
          -59 93 135 -27.02 94 hhcurveto
          302 169 176 310.98 hvcurveto
          1022.01 127 callgsubr
          176 139 callsubr
          224 84.99 174 41 callgsubr
        </CharString>
        <CharString name="germandbls">
          113 -20 -103 callgsubr
          119 callsubr
          43 1360.98 19 callgsubr
          125 callsubr
          -99 callsubr
          270.99998 -99 callsubr
          96 callsubr
          176 34 155 callgsubr
          hintmask 01110100
          325 hmoveto
          1111.98 vlineto
          201 81 91 -28 callgsubr
          109 82 -69 -133 vhcurveto
          -154 -138 -64.99 -161 vvcurveto
          hintmask 10111010
          -271 348 -53 -190 vvcurveto
          -99 146 callsubr
          -79.01 -156 -92 -99 47 29 -46.02 vhcurveto
          84 callgsubr
          -153 rlineto
          -78 callgsubr
          51 138 -35 110 hhcurveto
          224 161 108.99 228 hvcurveto
          258.01 -349 -38 callgsubr
          184 138 128 45 214 vvcurveto
          hintmask 01110100
          231.02 -159 105.99 -217.99 -234 145 callgsubr
          -150 -292 vhcurveto
          -1111.98 vlineto
          endchar
        </CharString>
        <CharString name="grave">
          -471 95 callsubr
          293 hstem
          101 callsubr
          419 vstem
          474.99 95 callsubr
          rmoveto
          -194 136 callgsubr
          -225 54 callsubr
          17 callsubr
          endchar
        </CharString>
        <CharString name="gravecomb">
          -1105 95 callsubr
          293 hstem
          -858.99 419 vstem
          -439.99 95 callsubr
          -41 callgsubr
          endchar
        </CharString>
        <CharString name="greater">
          -34 197.98 901.02 hstem
          134.98 854.02 vstem
          134.98 1099 rmoveto
          -189 vlineto
          661.02 -258.99 -661.02 -263 rlineto
          -190 vlineto
          854.02 379 rlineto
          29 vlineto
          115.02 vlineto
          endchar
        </CharString>
        <CharString name="guillemotleft">
          -144 -103 callgsubr
          795.99 hstem
          149 callgsubr
          770 vstem
          537.99 945.99 rmoveto
          31 callsubr
          88 callsubr
          12 callgsubr
          hlineto
          -257 397.99 rlineto
          589 398.01 rmoveto
          -143 88 callsubr
          143 hlineto
          -258.01 397.99 rlineto
          endchar
        </CharString>
        <CharString name="guillemotright">
          -144 -59 callsubr
          795.99 hstem
          102.99 787 vstem
          540 541 rmoveto
          18.99 vlineto
          -295.02 389 rlineto
          107 callgsubr
          156 callgsubr
          3 callgsubr
          hlineto
          350 796 rmoveto
          107 callgsubr
          hlineto
          256.98 -397.99 -256.98 -398 rlineto
          3 callgsubr
          hlineto
          295.02 132 callgsubr
        </CharString>
        <CharString name="guilsinglleft">
          -490 -71 callgsubr
          794.99 hstem
          107.99 438 vstem
          546 948.98 rmoveto
          -143.02 hlineto
          -294.99 -388 rlineto
          -6 vlineto
          -13 vlineto
          294.99 -388 rlineto
          143.02 hlineto
          -258.01 397 rlineto
          endchar
        </CharString>
        <CharString name="guilsinglright">
          -490 -59 callsubr
          795.99 hstem
          -44 callsubr
          437 vstem
          232 948.98 rmoveto
          -142 156 callgsubr
          142 hlineto
          295 132 callgsubr
        </CharString>
        <CharString name="h">
          23 0 43 903.99 41 callsubr
          478 7 callsubr
          645 78 callgsubr
          -131 -110 145 callsubr
          -93 -77 hvcurveto
          582 -187 -1536 187 773.98 vlineto
          -72 callsubr
        </CharString>
        <CharString name="hyphen">
          -540 25 callgsubr
        </CharString>
        <CharString name="i">
          -607 0 43 1222.99 210 hstemhm
          3 callgsubr
          -80 callgsubr
          163 callgsubr
          155 callgsubr
          hintmask 11100000
          250.98 1475.99 115 callgsubr
          -47 callsubr
          hvcurveto
          hintmask 11010000
          142 callsubr
          -1475.99 rmoveto
          1082 -187 -1082 vlineto
          endchar
        </CharString>
        <CharString name="iacute">
          -597 0 43 1197.98 293 hstem
          -95 callgsubr
          -89 callsubr
          354 1533.99 rmoveto
          -194 -293 67 callgsubr
          293 rlineto
          -237 -1533.99 rmoveto
          76 callsubr
        </CharString>
        <CharString name="icircumflex">
          -597 0 43 1207.97 33 callgsubr
          hstem
          -95 callgsubr
          -89 callsubr
          556.99 1260.99 rmoveto
          -248 273 rlineto
          -111.99 hlineto
          -246 -272 rlineto
          -11.02 153 vlineto
          -101 callsubr
          170 183 callgsubr
          154 hlineto
          -215 -1250.98 rmoveto
          76 callsubr
        </CharString>
        <CharString name="idieresis">
          -597 0 43 1220.98 210 -207.98999 210 hstemhm
          -70 -80 callgsubr
          6 -99 callsubr
          18.99998 220.01 hintmask 00000000
          hintmask 10110000
          40 1475.99 rmoveto
          -72 27 callgsubr
          72 -76 callgsubr
          156 callsubr
          135 callsubr
          hintmask 11001100
          430 -2 rmoveto
          -53 callsubr
          174 callgsubr
          -84 callgsubr
          6 callgsubr
          hvcurveto
          hintmask 10101000
          -128 -1473.99 rmoveto
          76 callsubr
        </CharString>
        <CharString name="igrave">
          -597 0 43 1197.98 293 hstem
          -95 callgsubr
          -89 callsubr
          342 1240.99 rmoveto
          -193 293 rlineto
          -225.99 hlineto
          258.98 -293 rlineto
          160 -1240.99 rmoveto
          76 callsubr
        </CharString>
        <CharString name="j">
          -614 -437 -95 callgsubr
          1547 210 hstemhm
          127 -80 callgsubr
          -201.01001 155 callgsubr
          hintmask 11100000
          235.99 1475.99 rmoveto
          -48 callsubr
          28 callgsubr
          hvcurveto
          hintmask 11010000
          82 callsubr
          -394 rmoveto
          -187 -1211 hlineto
          -111 -45 -41 -80 -23.98 -36 3 6 -25.01 vhcurveto
          -1 -148 rlineto
          -10 31 187 callsubr
          -7 34 hhcurveto
          189.99 93 109 199 hvcurveto
          endchar
        </CharString>
        <CharString name="k">
          -66 0 43 hstem
          140.98 7 callsubr
          817.99 hmoveto
          220 hlineto
          -471 630.99 421.01 451.01 rlineto
          -227 hlineto
          -334.01 -357 -99 -117 rlineto
          928.02 -187 -1536 187 381.99 vlineto
          116 120 rlineto
          endchar
        </CharString>
        <CharString name="k.alt">
          -60 0 43 458.98 152 hstem
          -52 callsubr
          -89 callsubr
          825 hmoveto
          221 hlineto
          -429.02 589.99 376.01 492.01 rlineto
          -221 hlineto
          -313 -428.01 rlineto
          -126.02 882.02 -186 -1536 186 501.99 130 hlineto
          endchar
        </CharString>
        <CharString name="k.alt2">
          -64 0 43 hstem
          -52 callsubr
          -89 callsubr
          780.98 hmoveto
          230.02 hlineto
          -511 583.99 469 498.01 rlineto
          -242 hlineto
          -393.01 -429.02 rlineto
          -1 907 -186 -1559.98 186 500 5 hlineto
          endchar
        </CharString>
        <CharString name="l">
          -607 0 43 hstem
          -95 callgsubr
          7 callsubr
          343 hmoveto
          1536 -187 -1536 vlineto
          endchar
        </CharString>
        <CharString name="less">
          -64 183 callsubr
          902 hstem
          -76 callgsubr
          818.01 vstem
          890 1097.99 rmoveto
          -818.01 -378 rlineto
          -30 vlineto
          -115 vlineto
          818.01 -379 rlineto
          -77 callsubr
          vlineto
          -624 254.02 624 -5 callgsubr
          rlineto
          endchar
        </CharString>
        <CharString name="logicalnot">
          30 640 -65 callsubr
          hstem
          771.99 7 callsubr
          127 799.99 rmoveto
          145 callgsubr
          645 -264.01 187 264.01 vlineto
          -65 callsubr
          vlineto
          endchar
        </CharString>
        <CharString name="longs">
          -596 0 43 1363.99 -103 callgsubr
          hstem
          -65 callsubr
          7 callsubr
          -65 callsubr
          hmoveto
          187 1196.99 hlineto
          -45 callgsubr
          64 189 callgsubr
          118 -44 callgsubr
          29 -5 -7 24 vhcurveto
          23 141 rlineto
          11.98 -48 -47 143 callgsubr
          96 callsubr
          hhcurveto
          -211 -129 105 callsubr
          endchar
        </CharString>
        <CharString name="longst">
          158 -20 158 -138 43 897.99 141 325 -103 callgsubr
          -140.96002 -97 callsubr
          hstemhm
          230.99 187 368.98999 155 callgsubr
          hintmask 10101110
          1178.99 -101 callsubr
          rmoveto
          -4 -17 30 callsubr
          -7 -32 callgsubr
          hhcurveto
          -61 -57 18 123 callgsubr
          hvcurveto
          673.01 201 141 -201 120 callsubr
          vlineto
          112 vlineto
          hintmask 01110110
          61 -124 -161 39 -118 hhcurveto
          -210.99 -129 105 callsubr
          -115 -170 -141 170 0 callsubr
          1196.99 vlineto
          -45 callgsubr
          63 189 callgsubr
          -33 callgsubr
          60 87 -16.02 -21 40 vhcurveto
          -25 vlineto
          114 callgsubr
          hintmask 10101110
          -216.99 94 callgsubr
          -72 -28 callgsubr
          66.01 48 76 callgsubr
        </CharString>
        <CharString name="m">
          690 0 43 903.99 -63 callgsubr
          hstem
          125 callsubr
          -66 callsubr
          478.01 187 478 7 callsubr
          1293.99 78 callgsubr
          -156 -116 -69 -103 -72 hvcurveto
          119.99 -57 -113.99 52 -138.02 hhcurveto
          -140 -105.99 -51 -86 -73.01 hvcurveto
          -6 117 rlineto
          -176.99 -1082 190 callgsubr
          793.99 hlineto
          91 40.02 104 callsubr
          62.02 130 hhcurveto
          140 31 callgsubr
          -65 -170 hvcurveto
          -711.99 187 716.98 vlineto
          127 13 86 121 callgsubr
          149 hhcurveto
          1 callsubr
          -7 callsubr
          -52 -182 hvcurveto
          -712.99 187 710.98 vlineto
          273 -130 118 -232 vhcurveto
          endchar
        </CharString>
        <CharString name="macron">
          -165 1303.98 141 hstem
          12 callgsubr
          671.98 vstem
          814.98 1303.98 rmoveto
          141 -671.99 -141 vlineto
          endchar
        </CharString>
        <CharString name="minus">
          66 651.98 -32 callsubr
          hstem
          192 callgsubr
          834.99 vstem
          1002.99 62 callsubr
          -834.99 148 callsubr
          vlineto
          endchar
        </CharString>
        <CharString name="multiply">
          -12 203.98 916 hstem
          2 callgsubr
          900.99 vstem
          989.98 325.98 rmoveto
          -330 337.02 328.01 335 92 callgsubr
          122 -327.99 -334 -329.02 334 -119.99 -122 328.99 -335 -331 -337.02 147 callgsubr
          -122 331 337.02 330 -337.02 rlineto
          endchar
        </CharString>
        <CharString name="n">
          26 0 43 903.99 41 callsubr
          478 7 callsubr
          645 78 callgsubr
          -134 -111 -57 -96.01 -77 hvcurveto
          -6 133.02 rlineto
          -177 -1082 187 773.98 hlineto
          -72 callsubr
        </CharString>
        <CharString name="nine">
          46 -2 -95 callgsubr
          333 152 685 152 hstem
          149 callgsubr
          183 548.01001 -89 callsubr
          552 1475.99 rmoveto
          -297 -155.02 -226 -277.02 -238 127 -248 289.02 126 111 62 91.02 77 hvcurveto
          -252 -10 -95 -234 -401 hhcurveto
          -19 -155.99 19 hlineto
          606 87 442 379 hvcurveto
          69 vlineto
          295 -131 293 -333.99 vhcurveto
          -6 -837 rmoveto
          -178.02 -33 callsubr
          170.99 173.02 -14 callgsubr
          98 147 171 82 callgsubr
          164 callgsubr
          -146 -266 hvcurveto
          -73.01 vlineto
          -112.99 -49 -110 -87 -125.99 hhcurveto
          endchar
        </CharString>
        <CharString name="nine.frac">
          656.99 -6 callgsubr
          136.01 121 296 0 callgsubr
          1463.99 133 callsubr
          -153 -155 177 callgsubr
          124 callgsubr
          39 41 hvcurveto
          -18 callsubr
          37 callgsubr
          278 -75 callgsubr
          -59.99 vlineto
          -38 -22 -48 -33 -66.01 hhcurveto
          endchar
        </CharString>
        <CharString name="nine.smcp">
          -65 -7 -59 callsubr
          236 146 501.98999 106 callsubr
          hstem
          86 -91 callsubr
          466 -89 callsubr
          500.98 1181 rmoveto
          -267 -147.99 -184 -223.99 -208.02 119.99 -182.99 258 122 91 48 63 58 hvcurveto
          -200 11 callgsubr
          21 callsubr
          -147 -316 hhcurveto
          -18 hlineto
          -0.99 -152.98 rlineto
          18.99 hlineto
          497.01 134 297.98 347.02 hvcurveto
          69 vlineto
          264.99 -131 209.02 -291 vhcurveto
          -4 -653 rmoveto
          -152 -74 120 129 -28 callgsubr
          103 callsubr
          116 146 127.02 109 4 callsubr
          -191 hvcurveto
          -66.01 vlineto
          -80 -38 -91 -64 -111 hhcurveto
          endchar
        </CharString>
        <CharString name="nine.sup">
          -7 -6 callgsubr
          136 121 295.98999 0 callgsubr
          799.99 133 callsubr
          -153 -154.99 177 callgsubr
          26.99 38.02 41 hvcurveto
          -136 -13 -85 -65 -181 hhcurveto
          11 callgsubr
          -125.99 42 callsubr
          -63 callgsubr
          278 -75 callgsubr
          -58.98 vlineto
          30 callsubr
          -21.02 -47.98 -33 -67.02 hhcurveto
          endchar
        </CharString>
        <CharString name="nine.tnum">
          105 endchar
        </CharString>
        <CharString name="ntilde">
          26 0 43 903.99 -63 callgsubr
          176 callgsubr
          1 callsubr
          187 -106.98999 1 callgsubr
          457.98999 125 -122.99 155 callgsubr
          hintmask 11010101
          443.99 1357.99 rmoveto
          111 21.02 -95 13 callgsubr
          hhcurveto
          hintmask 11101010
          134 callsubr
          155 callsubr
          26 callsubr
          hintmask 11010101
          -122 -93 -101 -145 hvcurveto
          1 callgsubr
          -7 rlineto
          99 callsubr
          43 43 callgsubr
          56 vhcurveto
          hintmask 11101001
          201 -256 rmoveto
          -134 -111 -57 -96.01 -77 hvcurveto
          -6 133.02 rlineto
          -177 -1082 187 773.98 hlineto
          -72 callsubr
        </CharString>
        <CharString name="numbersign">
          158 0 43 366.98 -28 callgsubr
          355.01 138 375.04 -86 callgsubr
          119.99 1115.99 vstem
          1235.99 901.98 rmoveto
          138 -203 vlineto
          82 415.99 rlineto
          -145 hlineto
          -81 -415.99 rlineto
          -263 hlineto
          81 415.99 rlineto
          -144 hlineto
          -81 -415.99 rlineto
          -286 -138 -5 callgsubr
          hlineto
          -69 -355 rlineto
          -266 141 callgsubr
          239 107 callsubr
          263 107 callsubr
          251 -28 callgsubr
          -224 hlineto
          69.02 355 rlineto
          -213 -355 rmoveto
          -263 hlineto
          69.02 355 rlineto
          120 callsubr
          hlineto
          endchar
        </CharString>
        <CharString name="o">
          64 -20 149.99 822 149.99 20 callsubr
          92 552 -107 callsubr
        </CharString>
        <CharString name="o.ss06">
          78 -9 callgsubr
          -44 callsubr
          187 630 -89 callsubr
          -44 callsubr
          552 rmoveto
          -23 vlineto
          -313.02 199 -235.99 303 303 198 235.99 313.02 vhcurveto
          23 vlineto
          313 -198 237 -305.01 -301 -199 -237 -313 vhcurveto
          187 -23 rmoveto
          23 vlineto
          212.99 111 187 202 204 94 callgsubr
          -187 -212.99 vhcurveto
          -23 vlineto
          -215 21 callsubr
          -184 -202 -204 -111 184 215 vhcurveto
          endchar
        </CharString>
        <CharString name="oacute">
          64 -20 -103 callgsubr
          822 -103 callgsubr
          81 callsubr
          20 callsubr
          675.98 1536 rmoveto
          100 callgsubr
          49 callsubr
          -809 -984 -107 callsubr
        </CharString>
        <CharString name="ocircumflex">
          64 -20 -103 callgsubr
          822 -103 callgsubr
          150.99998 33 callgsubr
          20 callsubr
          878.98 1262.98 rmoveto
          55 callgsubr
          149.02 170 183 callgsubr
          -71 callgsubr
          hlineto
          -786.99 -700.99 -107 callsubr
        </CharString>
        <CharString name="odieresis">
          64 -20 -103 callgsubr
          822 -103 callgsubr
          164.01 210 hstemhm
          92 187 -27.01 -80 callgsubr
          210.99998 -80 callgsubr
          -12.98 -66 callsubr
          hintmask 00000000
          hintmask 11101100
          361.98 1477.98 rmoveto
          26 callgsubr
          39 callgsubr
          46 58 59 -78 callgsubr
          46.99 -53 callsubr
          hvcurveto
          430 -1.99 115 callgsubr
          28 callgsubr
          hvcurveto
          hintmask 11110010
          -699.99 -924 -107 callsubr
        </CharString>
        <CharString name="oe">
          754 -8 callsubr
          150.98 369.00002 -103 callgsubr
          303.01 -103 callgsubr
          hstem
          82 callsubr
          187 594 196.99 529.01 7 callsubr
          1791 619.99 rmoveto
          281.99 -143.02 200 -298 vhcurveto
          -146.99 1 -139 -81 -86.02 -135 rrcurveto
          132 -81 141 callgsubr
          83 -180 hhcurveto
          -302 -181 -237 -313 hvcurveto
          -23 vlineto
          -313.02 181 -236.97 92 callsubr
          178 135 80.98 131 81 vhcurveto
          -132.02 103 callsubr
          140 -79.97 178.02 hhcurveto
          196 121 68.97 65 65 hvcurveto
          -72.99 -7 callgsubr
          rlineto
          -61 29 callsubr
          121 callsubr
          -47 -146 hhcurveto
          -193 -103 163 206 -7 hvcurveto
          716 hlineto
          -913 30 rmoveto
          -215 -93 -184 -203.02 -204.99 -93 184 215 vhcurveto
          23 vlineto
          212.99 93 187 203 205 93 -187 -212.99 vhcurveto
          726 97 rmoveto
          -523 hlineto
          173 124 callgsubr
          104 130 139 hhcurveto
          176 78 -131 -146 hvcurveto
          endchar
        </CharString>
        <CharString name="ograve">
          64 -20 -103 callgsubr
          822 -103 callgsubr
          81 callsubr
          20 callsubr
          664.99 57 callsubr
          -413 -691 -107 callsubr
        </CharString>
        <CharString name="one">
          46 0 43 1380.03 -86 callgsubr
          542.98 7 callsubr
          729.99 hmoveto
          1463.99 -29 vlineto
          -530 -199 rlineto
          -167 vlineto
          372 -28 callgsubr
          rlineto
          -1234.98 vlineto
          endchar
        </CharString>
        <CharString name="one.smcp">
          -65 0 43 hstem
          482.98 188 vstem
          670.99 hmoveto
          1167.99 -27 vlineto
          -492.01 -164 rlineto
          -158 vlineto
          331 99 rlineto
          -944.99 vlineto
          endchar
        </CharString>
        <CharString name="one.sup">
          0 43 153 callgsubr
          hmoveto
          38 callgsubr
          -602.99 vlineto
          endchar
        </CharString>
        <CharString name="one.tnum">
          -124 endchar
        </CharString>
        <CharString name="ordfeminine">
          -189 691.99 13 callgsubr
          209.99998 111 188.01001 140 hstemhm
          -52 callsubr
          164 -148.98999 161.99 269.99998 164 hintmask 11101100
          783.99 705.99 rmoveto
          -18 58 -8 58 65 vvcurveto
          314 vlineto
          183 -115 93 -172 -187 -122 -98.02 -134.98 vhcurveto
          162 -13 rlineto
          69 54.99 37 142 callsubr
          160 callsubr
          40 -48 -87 vhcurveto
          -53 -107.99 vlineto
          hintmask 11110100
          -227 -112.01 -84 -146.99 -137.02 144 callsubr
          102 callsubr
          -65 callsubr
          -18 callgsubr
          -43 callsubr
          40 46 42 hvcurveto
          4.01 -25 5.98 -24 7 -23 rrcurveto
          -182.99 122 rmoveto
          -85.02 -39 36 58 64 55 52 121 hvcurveto
          103 callgsubr
          107 callgsubr
          hlineto
          -37 -35.99 -65 -31 -58 hhcurveto
          endchar
        </CharString>
        <CharString name="ordmasculine">
          -173 690.99 137.99 508.01 140 hstem
          95 callgsubr
          164 357.01001 164 vstem
          95 callgsubr
          1123.98 rmoveto
          -81 vlineto
          163 callgsubr
          164 callgsubr
          -146 211.99 210 131 146 35 callgsubr
          vhcurveto
          81 vlineto
          206 -131 147 -211.99 -210 -132.02 -147 -206 vhcurveto
          164 -81 rmoveto
          81 vlineto
          120.02 58 93 147 callgsubr
          121 58 -93 92 callgsubr
          vhcurveto
          -81 vlineto
          -122 -58 -92 -119.01 -123 -57 92 122 vhcurveto
          endchar
        </CharString>
        <CharString name="oslash">
          56 -20 -103 callgsubr
          822 -103 callgsubr
          66.04999 -86 callgsubr
          92 -99 callsubr
          612 -66 callsubr
          vstem
          883 1003.99 rmoveto
          100.99 205 rlineto
          -123.99 hlineto
          -73.02 -148 rlineto
          27.02 -59.99 -69.02 148 callgsubr
          -75 hhcurveto
          -302 34 callsubr
          -237 -313 hvcurveto
          -23 vlineto
          -197.02 75 122 callgsubr
          -45 callgsubr
          -97 vhcurveto
          4 callsubr
          -204 rlineto
          123.99 hlineto
          74 callgsubr
          -103 callgsubr
          rlineto
          -23 57 63 -12 70 hhcurveto
          304 187.99 235.99 313.02 hvcurveto
          23 vlineto
          191 -70 163 -123.99 98 vhcurveto
          -605 -475 rmoveto
          23 vlineto
          212.99 101.99 187 203 187 callgsubr
          45 -12 -20.01 -44 callgsubr
          vhcurveto
          -343 -696 rlineto
          -64 74 -65 callgsubr
          111 147 callgsubr
          vvcurveto
          612 hmoveto
          -215 -17 callsubr
          -184 -203 -45 -41 143 callgsubr
          16 -35 vhcurveto
          339.99 689.99 rlineto
          57.02 -75 29 -105 -112.99 vvcurveto
          endchar
        </CharString>
        <CharString name="otilde">
          64 -20 -103 callgsubr
          822 -103 callgsubr
          176 callgsubr
          92 187 -56.01 125 458 1 callgsubr
          -40.99 -66 callsubr
          hintmask 00000000
          hintmask 11101010
          930.98 1503.99 rmoveto
          96 callgsubr
          12 rlineto
          -64 -44 -49 -56 vhcurveto
          -106 -17 callgsubr
          -18 callgsubr
          -113 hhcurveto
          hintmask 11010101
          40 callgsubr
          111 21 -95 136 hhcurveto
          hintmask 11101010
          121 28 callsubr
          95 146 hvcurveto
          hintmask 11101001
          -838.98 -951.99 -107 callsubr
        </CharString>
        <CharString name="p">
          45 -20 -103 callgsubr
          817 41 callsubr
          541 7 callsubr
          633 78 callgsubr
          -137.02 -102.99 -17 callgsubr
          -89 -72.99 hvcurveto
          -10.02 118 rlineto
          -170 55 callsubr
          151 52 callgsubr
          -150 222 -272 vhcurveto
          234.99 110 callgsubr
          102 callsubr
          -4 callsubr
          2 callgsubr
          197 callgsubr
        </CharString>
        <CharString name="p.ss06">
          61 -20 -103 callgsubr
          817 41 callsubr
          561.01001 7 callsubr
          633 78 callgsubr
          -139 -105 -51 22 callgsubr
          -73.01 hvcurveto
          -16 122 rlineto
          -160 55 callsubr
          171 52 callgsubr
          -170 222 -272 vhcurveto
          255 110 callgsubr
          -109 -4 callsubr
          109 -174 -223 hvcurveto
          endchar
        </CharString>
        <CharString name="paragraph">
          -103 -66 callgsubr
          645.98 188 vstem
          645.98 hmoveto
          188 -70 callgsubr
          -275 hlineto
          -318 -174 -199.99 -268 -270.01 174 -198 318 hvcurveto
          87 hlineto
          endchar
        </CharString>
        <CharString name="parenleft">
          -403 179 callgsubr
          132.99 7 callsubr
          133 590.99 rmoveto
          -10 vlineto
          -582 302 -362.99 188.99 -106 vhcurveto
          104 callgsubr
          111 rlineto
          -156.02 129 -186.98 92 callsubr
          505 vvcurveto
          14.99 vlineto
          505.02 -66 callsubr
          92 callsubr
          32 callgsubr
          162 callsubr
          vhcurveto
          30 callsubr
          121 rlineto
          34 callsubr
          -105 -302 -366 -581 vvcurveto
          endchar
        </CharString>
        <CharString name="parenright">
          -391 179 callgsubr
          381.99 -89 callsubr
          567.99 581 rmoveto
          10 vlineto
          581 -301 366 -189 105 vhcurveto
          -39 -112 rlineto
          3 callgsubr
          -117 201 -314.98 -505.02 vvcurveto
          192 callsubr
          vlineto
          -505 -187 -314 -156 -27 callgsubr
          vhcurveto
          39 -111 rlineto
          189 106 301 362.99 582 vvcurveto
          endchar
        </CharString>
        <CharString name="percent">
          395 -8 callsubr
          119.97 438 147 callgsubr
          12 callgsubr
          119.99 437.01 147 callgsubr
          hstem
          161 callgsubr
          140 318.01001 140 111 125 callsubr
          319.01 125 callsubr
          vstem
          161 callgsubr
          1175.98 rmoveto
          190 callsubr
          vlineto
          -163 113 -136 187 186 112 136 163 vhcurveto
          104 callsubr
          vlineto
          165 -112 136 -188 -185 -113 -136 -165 vhcurveto
          140 190 callsubr
          rmoveto
          104 callsubr
          vlineto
          94 52 87 106 108.02 52 -87 -94 vhcurveto
          190 callsubr
          vlineto
          -93 -51 -86.02 33 callsubr
          -109 -51.02 87 142 callsubr
          vhcurveto
          -19 callsubr
          -988.02 rmoveto
          710.99 1138.01 -104.99 74 callsubr
          -711 -1137.99 rlineto
          472 180 rmoveto
          5 callgsubr
          vlineto
          -164 143 callsubr
          -18 callsubr
          187 185 112.01 13 callgsubr
          164 vhcurveto
          11 callsubr
          vlineto
          164 -112.01 136 -187 -185 -112.99 -136 -164 vhcurveto
          139 5 callgsubr
          rmoveto
          11 callsubr
          vlineto
          94 52 86 103 callgsubr
          108.01 52 -86 -94 vhcurveto
          5 callgsubr
          vlineto
          -94 -51 -86.02 33 callsubr
          -109 -52 87.02 93 vhcurveto
          endchar
        </CharString>
        <CharString name="period">
          -564 93 callgsubr
          -80 callgsubr
          hstem
          143.99 230.99 vstem
          -5 callgsubr
          209 rmoveto
          157 callsubr
          40 46.98 61 63 -40 49 -76 hvcurveto
          endchar
        </CharString>
        <CharString name="periodcentered">
          -569 619.99 -80 callgsubr
          hstem
          -52 callsubr
          231 vstem
          261.98 839.99 rmoveto
          -75 -40 -48 -63 -43 callgsubr
          40 -48 75 76 40.02 48 -38 callgsubr
          63 -40.02 48 -76 hvcurveto
          endchar
        </CharString>
        <CharString name="plus">
          57 606.98 142 callgsubr
          385.04999 -86 callgsubr
          483.98 7 callsubr
          1076 779.98 rmoveto
          -405.01 426 -187 -426 -406 -173 406 -461 187 461 405.01 hlineto
          endchar
        </CharString>
        <CharString name="plusminus">
          -10 0.98 -32 callsubr
          553.01001 -103 callgsubr
          hstem
          481.99 169 vstem
          651 854 rmoveto
          413 -169 -413 -385 -150 385 -415.01 169 415.01 361.99 150 vlineto
          -877 -853.02 rmoveto
          835.01 -50 callgsubr
          -835.01 hlineto
          endchar
        </CharString>
        <CharString name="q">
          60 -9 callgsubr
          28 callsubr
          187 538.98999 7 callsubr
          837 1082 rmoveto
          -8.01 -107 rlineto
          82 -72 -99.99 45 -131 hhcurveto
          -270.99 -160 16 callgsubr
          162 -233 267 128 98.02 42 76 70.99 vhcurveto
          -514 187 1498 vlineto
          -437 -952.01 rmoveto
          -199.99 -89.01 183 139 callsubr
          216 144 callsubr
          186 101 callgsubr
          162 callsubr
          80 -61 -82 43 callgsubr
          vhcurveto
          -533 vlineto
          -33 callsubr
          138 callgsubr
          100 callsubr
          -61 -122 hhcurveto
          endchar
        </CharString>
        <CharString name="q.ss06">
          76 -9 callgsubr
          31 callgsubr
          187 559.98999 7 callsubr
          862.99 1082 rmoveto
          11 callgsubr
          -112 rlineto
          85 -72 119 callgsubr
          47 -133 hhcurveto
          -272 -180 -223 -330 hvcurveto
          -21 vlineto
          -316 182 -231.99 268 127 98 42 76 -76 callgsubr
          vhcurveto
          -514 187 1498 vlineto
          -437.99 -952.01 rmoveto
          -200 -109 182 139 callsubr
          224 109 179 101 callgsubr
          162 callsubr
          80 -61 -82 50 vhcurveto
          -533 vlineto
          -33 callsubr
          -51 5 callgsubr
          -61 -122 hhcurveto
          endchar
        </CharString>
        <CharString name="question">
          -136 93 callgsubr
          185 callgsubr
          1116.99 160 hstemhm
          75 -66 callsubr
          87.01001 -80 callgsubr
          -212.00002 187 157 -99 callsubr
          hintmask 11101100
          356.99 409.99 rmoveto
          187 hlineto
          99 20.01 87 -40 callsubr
          75 callgsubr
          vhcurveto
          127 120 123 134 179 vvcurveto
          234 -145 146 -255 -230.99 -178.02 -135 -226 -2.99 vhcurveto
          190 callgsubr
          hlineto
          139 109.02 139 callgsubr
          116 139 75 -86 -139 -137 -81 -64 -91 -94 vhcurveto
          -127.02 -130 -42.99 -64 -2 -192 rrcurveto
          hintmask 11110100
          102.01 -211 rmoveto
          -72 -38 -47 -58.99 -59 38 147 callsubr
          72 -76 callgsubr
          38.02 120 callgsubr
          59 58.99 -38.02 135 callsubr
          endchar
        </CharString>
        <CharString name="questiondown">
          -135 -386 161 1116.98 210 hstemhm
          67.99 187 122 -80 callgsubr
          -194.00002 155 callgsubr
          hintmask 11110000
          488 891.99 116 callgsubr
          -53 callsubr
          73 callgsubr
          -46 -58 -59 38.99 -47 -84 callgsubr
          hvcurveto
          hintmask 10101000
          101.99 -211.99 rmoveto
          -187 hlineto
          -98.02 -18.98 -81.99 -71 -69.02 vhcurveto
          92 callgsubr
          -116.99 96 callgsubr
          -138.02 -181.98 vvcurveto
          -240 150 -140 260 232 177 138.02 140 callgsubr
          3 vhcurveto
          -187 hlineto
          -139 -1 34 callgsubr
          -65.99 -116 hhcurveto
          -144 30 callgsubr
          -34 callsubr
          145 125 callsubr
          80 70 84.99 91 hvcurveto
          123 134 45 56 2 191.02 rrcurveto
          endchar
        </CharString>
        <CharString name="quotedbl">
          -447 1043.98 492.01 hstem
          -28 callgsubr
          141 129.98999 141 vstem
          278 1399.99 rmoveto
          136 -141 -145.02 vlineto
          -1 -347 rlineto
          112 hlineto
          301 356 rmoveto
          136 -141 -138.02 vlineto
          -0.99 -354 rlineto
          123 callgsubr
          hlineto
          endchar
        </CharString>
        <CharString name="quotedblbase">
          -396 -299.99 545.97 hstem
          -45 callgsubr
          -99 callsubr
          111.01 7 callsubr
          316.98 -34 callsubr
          rmoveto
          167 -186 -170 vlineto
          -114.97 -32.02 -96.01 -63 -93 vhcurveto
          106 -81 callgsubr
          rlineto
          111 28 callsubr
          64 157 127 vvcurveto
          298 hmoveto
          167 -187 -170 vlineto
          -114.97 -32 -96.01 -62 -93 vhcurveto
          106 -81 callgsubr
          rlineto
          111 28 callsubr
          64 157 127 vvcurveto
          endchar
        </CharString>
        <CharString name="quotedblleft">
          -378 176 callsubr
          161 callgsubr
          185.01 -45 callgsubr
          -91 callsubr
          vstem
          161 callgsubr
          1194.99 rmoveto
          -121 185 callsubr
          124 vlineto
          107.99 34 -7 callsubr
          62 87.99 vhcurveto
          -106 72 rlineto
          -111 71 callsubr
          316 hmoveto
          -121 185 124 vlineto
          107.99 -49 callgsubr
          -7 callsubr
          139 callgsubr
          87.99 vhcurveto
          -106 72 rlineto
          -111 71 callsubr
          endchar
        </CharString>
        <CharString name="quotedblright">
          -371 1046.99 489 hstem
          -95 callgsubr
          -91 callsubr
          123.01 -89 callsubr
          340.99 1408 rmoveto
          128 -185 -130 vlineto
          -109 -34 -13 callsubr
          -62 -88 vhcurveto
          106 -81 callgsubr
          rlineto
          111 91 64 -101 callsubr
          105 callgsubr
          vvcurveto
          309 hmoveto
          128 -186 -130 vlineto
          -109 -33 -13 callsubr
          -63 -88 vhcurveto
          106 -81 callgsubr
          rlineto
          112 91 64 -101 callsubr
          105 callgsubr
          vvcurveto
          endchar
        </CharString>
        <CharString name="quoteleft">
          -694 176 callsubr
          -53 callgsubr
          -91 callsubr
          vstem
          -53 callgsubr
          1194.99 rmoveto
          -121 185 124 vlineto
          107.99 34 -7 callsubr
          99 callsubr
          87.99 vhcurveto
          -106 72 rlineto
          -112 71 callsubr
          endchar
        </CharString>
        <CharString name="quoteright">
          -694 1046.99 489 hstem
          143.99 -91 callsubr
          vstem
          328.99 1408 rmoveto
          128 -185 -130 vlineto
          -109 -33 -13 callsubr
          -63 -88 vhcurveto
          106 -81 callgsubr
          rlineto
          111 91 64 -101 callsubr
          105 callgsubr
          vvcurveto
          endchar
        </CharString>
        <CharString name="quotesinglbase">
          -696 -282 464.99 hstem
          -45 callgsubr
          -89 callsubr
          316.98 -34 callsubr
          rmoveto
          104 -186 -107 vlineto
          4 callgsubr
          -32.02 22 callgsubr
          -63 -88 vhcurveto
          106 -72 rlineto
          111 91.01 64 149 120.99 vvcurveto
          endchar
        </CharString>
        <CharString name="quotesingle">
          -747 1057.99 478 hstem
          104 -86 callsubr
          vstem
          255 1425 rmoveto
          111 -151 -127.02 vlineto
          -1 -350.99 rlineto
          83 callsubr
          hlineto
          endchar
        </CharString>
        <CharString name="r">
          -411 0 43 881.99 188 callsubr
          112 callsubr
          7 callsubr
          581.98 78 callgsubr
          -46 callsubr
          -84 145 callsubr
          -88 -54 hvcurveto
          -4 123 rlineto
          -182 -1082 187 768.98 hlineto
          95 40 80.02 61 -6 callgsubr
          hhcurveto
          35 24 -2 -6 -88 callsubr
          hvcurveto
          171 vlineto
          5.98 -12.99 -44 8 -25 hhcurveto
          endchar
        </CharString>
        <CharString name="registered">
          504 -8 callsubr
          -33 callgsubr
          556.99 127 257 -6 callgsubr
          191.99998 119 hstemhm
          -44 callsubr
          116 305 3 callgsubr
          310.01 142 -136 141 282.98999 117 hintmask 1111111010000000
          799.99 49 callgsubr
          392.01 89 callgsubr
          -392.01 8 callgsubr
          305.01 415.99 rmoveto
          94 -31 77 -93 -6 callsubr
          vhcurveto
          hintmask 1111110110000000
          103 callsubr
          42 -39 callgsubr
          63 83 vvcurveto
          171 -124.01 103 callsubr
          -198 vhcurveto
          -276.99 -848 3 callgsubr
          338 hlineto
          hintmask 1111111010000000
          163 hlineto
          -28 callsubr
          40 -45 -97.02 hvcurveto
          -52 vlineto
          -29 0 -81 13 -34 vhcurveto
          146 16 hlineto
          -12 30 -5 47 50 vvcurveto
          hintmask 1111110110000000
          -296.02 322 rmoveto
          -156 257 135 hlineto
          135 46 -35 -100 30 callgsubr
          -76 -41 -84 -2 hvcurveto
          endchar
        </CharString>
        <CharString name="ring">
          -418 1204.98 88 234 89 hstem
          121 100 231.99 99 vstem
          337 1615.99 rmoveto
          -123 -93 -92 -116 -116.02 93 -87 123 121 94 87 116.02 116 -94 92 -121 hvcurveto
          -323.01 vmoveto
          -68.02 96 callsubr
          123 callsubr
          59 63 102 callgsubr
          101 callsubr
          68.02 68 48 22 callsubr
          -63 -60 -48 -55 -68 hvcurveto
          endchar
        </CharString>
        <CharString name="s">
          -48 -20 -103 callgsubr
          822 19 callgsubr
          131.99 187 439.98999 187 -176 187 hintmask 11101000
          521.99 474.99 rmoveto
          -77 callgsubr
          hintmask 11110000
          195 callsubr
          187 hlineto
          186 -153 151 -260 -243 -158 -145 -171 vhcurveto
          hintmask 11101000
          -178 150 -83 240 138 callgsubr
          vhcurveto
          endchar
        </CharString>
        <CharString name="section">
          152 -495 -103 callgsubr
          1671 -86 callsubr
          hstemhm
          -44 callsubr
          187 -181 187 -142.01001 187 586 187 -164.98999 -66 callsubr
          -163.98 187 hintmask 11001100
          959 157.98 rmoveto
          hintmask 11001001
          44 callgsubr
          52 69.02 95 126 vvcurveto
          249.02 -171 92 -298 82 vhcurveto
          -281 11 callsubr
          -68 47 134 vvcurveto
          116 94 97.02 209 vhcurveto
          hintmask 11001010
          198 -28 callsubr
          -126.02 -153.99 hvcurveto
          -66 callsubr
          hlineto
          278 -186.98 153 -305.01 -298 -192 -145 -221 -133.02 49 -87 89 -65.99 vhcurveto
          hintmask 11010100
          -115.02 -54 -68 -96.02 -123.99 vvcurveto
          -249 175 -97.02 292 5 callgsubr
          vhcurveto
          269.98 -81 81 -53 -123.99 vvcurveto
          -121.02 -109 -93 -192 vhcurveto
          hintmask 11100100
          -157 -179 70 213.02 hvcurveto
          -187 -2 rlineto
          -323.99 266 33 callsubr
          257 295 193 134 232 vhcurveto
          hintmask 11001100
          134.98 -17 callgsubr
          87.02 -93 64.99 vhcurveto
          hintmask 11010001
          -676 395 rmoveto
          93 43 callgsubr
          32 callsubr
          106 25 vhcurveto
          49 -19 56 -17 60 -16 rrcurveto
          272 -82 84.01 -57.02 96 callgsubr
          vvcurveto
          -91 -58 -72 -103.02 -27 vhcurveto
          -17 callgsubr
          18 -53 15.99 -59 17 rrcurveto
          -285 -34 callsubr
          -69 50.02 134.99 vvcurveto
          endchar
        </CharString>
        <CharString name="semicolon">
          -671 871.99 -80 callgsubr
          hstemhm
          110 231.99 -202.01001 182 hintmask 00000000
          hintmask 11000000
          226 1091.99 rmoveto
          -76 -40 -48 -63 -61 40 96 callsubr
          76 75 41 102 callgsubr
          61 63 -41 48 -75 hvcurveto
          hintmask 10100000
          -53 callgsubr
          -1021.01 rmoveto
          148 -182 -151 vlineto
          -108.99 -35.99 -89 -63.02 -88 vhcurveto
          106 -81 callgsubr
          rlineto
          111 131 callsubr
        </CharString>
        <CharString name="seven">
          46 0 43 1262.98 -103 callgsubr
          hstem
          11 callsubr
          985 vstem
          1062.99 1352.99 rmoveto
          102.99 -985 -150 787 vlineto
          -601 -1305.99 rlineto
          196 hlineto
          endchar
        </CharString>
        <CharString name="seven.frac">
          1324.99 10 callgsubr
          1363.99 rmoveto
          89 -619.01 -128 452.02 vlineto
          -349 -661.01 rlineto
          167 hlineto
          endchar
        </CharString>
        <CharString name="seven.smcp">
          -65 0 43 970.98 172 callgsubr
          74 callsubr
          894.99 vstem
          960.98 1060.99 rmoveto
          104 -895 -151 697 vlineto
          -534 -1013.99 rlineto
          197 hlineto
          endchar
        </CharString>
        <CharString name="seven.sup">
          0 43 617.99 10 callgsubr
          699.99 rmoveto
          89 -5 callsubr
        </CharString>
        <CharString name="seven.tnum">
          -35 endchar
        </CharString>
        <CharString name="six">
          85 callsubr
          132.99 195 callgsubr
          635.99 128 callsubr
          30 callgsubr
          hvcurveto
          247.99 21 48 callsubr
          -59 callsubr
          -287 315 296 32 callgsubr
          168 callsubr
          -127.02 239.99 -290 97 callsubr
          70 vlineto
          112 40.98 115.02 87.98 129 hhcurveto
          179 85 80 callgsubr
        </CharString>
        <CharString name="six.frac">
          180 callsubr
          281 127 145 130 -1 callsubr
          1187.98 rmoveto
          -80 -63 -32.99 -43 -42 hvcurveto
          149 16 101 -76 callgsubr
          179 hhcurveto
          11 130 62 callgsubr
          -276.99 hvcurveto
          -56 108 callgsubr
          154 -50 callsubr
          -52 callgsubr
          116 15 callsubr
          113 hvcurveto
          35 vlineto
          42 23 53.99 33 75 callgsubr
          hhcurveto
          -44 callsubr
          48 -56 -82 -81 -53 -62 83 callgsubr
          hvcurveto
          endchar
        </CharString>
        <CharString name="six.smcp">
          -66 -15.99 150.98 486.00002 -103 callgsubr
          246.01 -63 callgsubr
          hstem
          97 callgsubr
          187 471 146 callgsubr
          vstem
          581 770.99 rmoveto
          92 callgsubr
          -96.99 -52 29 callsubr
          -62 hvcurveto
          209.02 16 124 156 312 hhcurveto
          14.99 -63 callgsubr
          -19.99 hlineto
          -484 -151 -292 -357.99 hvcurveto
          -84 vlineto
          -246.99 147 -206.99 281.99 265.01 -50 callsubr
          173.97 224 205 -116 184 -258.99 vhcurveto
          -40 -636.01 rmoveto
          -128 -112 105 198 hvcurveto
          42 vlineto
          81 -44 callgsubr
          96.02 60 103 callgsubr
          hhcurveto
          153 77 -110 -134 -139 -86 -103.02 -145 hvcurveto
          endchar
        </CharString>
        <CharString name="six.sup">
          93 callgsubr
          127 280.97 127 145.01001 83 callsubr
          -1 callsubr
          523.98 rmoveto
          -80 -63 -33 -83 callsubr
          -42 hvcurveto
          150 16 101 72 179 hhcurveto
          11 83 callsubr
          62 callgsubr
          -276.99 hvcurveto
          -56 vlineto
          -192 44 callgsubr
          -120.99 188 180 112 116.98 154 -50 callsubr
          -52 callgsubr
          116 -169 vhcurveto
          84 callgsubr
          -407.99 rmoveto
          -52 callgsubr
          -43 callgsubr
          58 143 callsubr
          hvcurveto
          35 vlineto
          41 23 53.99 34 75 callgsubr
          hhcurveto
          -44 callsubr
          48 22 callsubr
          -82 -81 -53 -62 83 callgsubr
          hvcurveto
          endchar
        </CharString>
        <CharString name="six.tnum">
          85 callsubr
          -6 callgsubr
          195 callgsubr
          628.98 128 callsubr
          -80 hvcurveto
          247.99 22 48 callsubr
          153 -287 314.98 296.02 156 168 callsubr
          -127 239.99 -290.02 97 callsubr
          69 vlineto
          94 callgsubr
          41 97 callgsubr
          87.98 130 hhcurveto
          179 84.99 80 callgsubr
        </CharString>
        <CharString name="slash">
          -259 1415.01999 -86 callgsubr
          17.98 767.02 vstem
          12 callsubr
          -125 rmoveto
          607 1580.99 rlineto
          -159 hlineto
          -608.01 -1580.99 rlineto
          endchar
        </CharString>
        <CharString name="space">
          -597 endchar
        </CharString>
</ttFont>
